<mxfile host="app.diagrams.net" agent="Mozilla/5.0 (Windows NT 10.0; Win64; x64) AppleWebKit/537.36 (KHTML, like Gecko) Chrome/127.0.0.0 Safari/537.36" version="25.0.3">
  <diagram name="Página-1" id="BITT4B2NqqfSyn1m6eKg">
    <mxGraphModel grid="1" page="1" gridSize="10" guides="1" tooltips="1" connect="1" arrows="1" fold="1" pageScale="1" pageWidth="827" pageHeight="1169" math="0" shadow="0">
      <root>
        <mxCell id="0" />
        <mxCell id="1" parent="0" />
        <mxCell id="vSxFJ0PzRZHDn2nLdWeI-106" value="" style="endArrow=none;html=1;rounded=0;exitX=0.75;exitY=0;exitDx=0;exitDy=0;fontFamily=Verdana;entryX=0.335;entryY=0.929;entryDx=0;entryDy=0;entryPerimeter=0;" edge="1" parent="1" source="vSxFJ0PzRZHDn2nLdWeI-178" target="vSxFJ0PzRZHDn2nLdWeI-104">
          <mxGeometry width="50" height="50" relative="1" as="geometry">
            <mxPoint x="5243.15" y="548.8400000000001" as="sourcePoint" />
            <mxPoint x="5250" y="450" as="targetPoint" />
          </mxGeometry>
        </mxCell>
        <mxCell id="vSxFJ0PzRZHDn2nLdWeI-132" value="" style="endArrow=none;html=1;rounded=0;entryX=0.5;entryY=0;entryDx=0;entryDy=0;exitX=0.5;exitY=1;exitDx=0;exitDy=0;fontFamily=Verdana;" edge="1" parent="1" source="vSxFJ0PzRZHDn2nLdWeI-55" target="vSxFJ0PzRZHDn2nLdWeI-126">
          <mxGeometry width="50" height="50" relative="1" as="geometry">
            <mxPoint x="4270" y="830" as="sourcePoint" />
            <mxPoint x="4283" y="1620" as="targetPoint" />
          </mxGeometry>
        </mxCell>
        <mxCell id="vSxFJ0PzRZHDn2nLdWeI-38" value="Horario" style="shape=rhombus;perimeter=rhombusPerimeter;whiteSpace=wrap;html=1;align=center;fillColor=#FFF2CC;fontFamily=Verdana;" vertex="1" parent="1">
          <mxGeometry x="4553.75" y="1193" width="210" height="80" as="geometry" />
        </mxCell>
        <mxCell id="vSxFJ0PzRZHDn2nLdWeI-39" value="" style="endArrow=none;html=1;rounded=0;exitX=0.5;exitY=1;exitDx=0;exitDy=0;entryX=0.25;entryY=1;entryDx=0;entryDy=0;fontFamily=Verdana;" edge="1" parent="1" source="vSxFJ0PzRZHDn2nLdWeI-38" target="vSxFJ0PzRZHDn2nLdWeI-134">
          <mxGeometry width="50" height="50" relative="1" as="geometry">
            <mxPoint x="4670.25" y="1699" as="sourcePoint" />
            <mxPoint x="4720.25" y="1649" as="targetPoint" />
          </mxGeometry>
        </mxCell>
        <mxCell id="vSxFJ0PzRZHDn2nLdWeI-40" value="Socio" style="rounded=0;whiteSpace=wrap;html=1;fillColor=#D4E1F5;fontFamily=Verdana;" vertex="1" parent="1">
          <mxGeometry x="4165.25" y="749" width="200" height="80" as="geometry" />
        </mxCell>
        <mxCell id="vSxFJ0PzRZHDn2nLdWeI-53" value="" style="endArrow=none;html=1;rounded=0;entryX=0.5;entryY=1;entryDx=0;entryDy=0;fontFamily=Verdana;" edge="1" parent="1" target="vSxFJ0PzRZHDn2nLdWeI-43">
          <mxGeometry width="50" height="50" relative="1" as="geometry">
            <mxPoint x="4170.25" y="749" as="sourcePoint" />
            <mxPoint x="3773.25" y="614" as="targetPoint" />
          </mxGeometry>
        </mxCell>
        <mxCell id="vSxFJ0PzRZHDn2nLdWeI-54" value="" style="endArrow=none;html=1;rounded=0;entryX=0.5;entryY=1;entryDx=0;entryDy=0;exitX=0.31;exitY=0.017;exitDx=0;exitDy=0;exitPerimeter=0;fontFamily=Verdana;" edge="1" parent="1" source="vSxFJ0PzRZHDn2nLdWeI-55" target="vSxFJ0PzRZHDn2nLdWeI-46">
          <mxGeometry width="50" height="50" relative="1" as="geometry">
            <mxPoint x="4200.25" y="750" as="sourcePoint" />
            <mxPoint x="3773.25" y="614" as="targetPoint" />
          </mxGeometry>
        </mxCell>
        <mxCell id="vSxFJ0PzRZHDn2nLdWeI-55" value="Socio" style="rounded=0;whiteSpace=wrap;html=1;fillColor=#CCE5FF;fontFamily=Verdana;" vertex="1" parent="1">
          <mxGeometry x="4165.25" y="749" width="200" height="80" as="geometry" />
        </mxCell>
        <mxCell id="vSxFJ0PzRZHDn2nLdWeI-56" value="Pago" style="rounded=0;whiteSpace=wrap;html=1;fillColor=#CCE5FF;fontFamily=Verdana;" vertex="1" parent="1">
          <mxGeometry x="5095.25" y="896.25" width="200" height="80" as="geometry" />
        </mxCell>
        <mxCell id="vSxFJ0PzRZHDn2nLdWeI-57" value="" style="endArrow=none;html=1;rounded=0;entryX=0.5;entryY=1;entryDx=0;entryDy=0;exitX=0;exitY=0;exitDx=0;exitDy=0;fontFamily=Verdana;" edge="1" parent="1" source="vSxFJ0PzRZHDn2nLdWeI-56" target="vSxFJ0PzRZHDn2nLdWeI-128">
          <mxGeometry width="50" height="50" relative="1" as="geometry">
            <mxPoint x="5095.25" y="866.25" as="sourcePoint" />
            <mxPoint x="4653.25" y="731.25" as="targetPoint" />
          </mxGeometry>
        </mxCell>
        <mxCell id="vSxFJ0PzRZHDn2nLdWeI-58" value="" style="endArrow=none;html=1;rounded=0;entryX=0.5;entryY=1;entryDx=0;entryDy=0;exitX=0.131;exitY=-0.001;exitDx=0;exitDy=0;exitPerimeter=0;fontFamily=Verdana;" edge="1" parent="1" source="vSxFJ0PzRZHDn2nLdWeI-56" target="vSxFJ0PzRZHDn2nLdWeI-59">
          <mxGeometry width="50" height="50" relative="1" as="geometry">
            <mxPoint x="5140.25" y="866.25" as="sourcePoint" />
            <mxPoint x="5119.25" y="777.25" as="targetPoint" />
          </mxGeometry>
        </mxCell>
        <mxCell id="vSxFJ0PzRZHDn2nLdWeI-59" value="" style="ellipse;whiteSpace=wrap;html=1;aspect=fixed;fillColor=#CCE5FF;fontFamily=Verdana;" vertex="1" parent="1">
          <mxGeometry x="5100.75" y="807.5" width="30" height="30" as="geometry" />
        </mxCell>
        <mxCell id="vSxFJ0PzRZHDn2nLdWeI-60" value="ID_Socio" style="text;html=1;strokeColor=none;fillColor=none;align=center;verticalAlign=middle;whiteSpace=wrap;rounded=0;fontFamily=Verdana;" vertex="1" parent="1">
          <mxGeometry x="5081.75" y="777.5" width="60" height="30" as="geometry" />
        </mxCell>
        <mxCell id="vSxFJ0PzRZHDn2nLdWeI-61" value="Entrenador" style="rounded=0;whiteSpace=wrap;html=1;fillColor=#CCE5FF;fontFamily=Verdana;" vertex="1" parent="1">
          <mxGeometry x="3700.25" y="1193" width="200" height="80" as="geometry" />
        </mxCell>
        <mxCell id="vSxFJ0PzRZHDn2nLdWeI-62" value="Instalación" style="rounded=0;whiteSpace=wrap;html=1;fillColor=#CCE5FF;fontFamily=Verdana;" vertex="1" parent="1">
          <mxGeometry x="5500.25" y="1193" width="200" height="80" as="geometry" />
        </mxCell>
        <mxCell id="vSxFJ0PzRZHDn2nLdWeI-63" value="Reserva" style="shape=rhombus;perimeter=rhombusPerimeter;whiteSpace=wrap;html=1;align=center;fillColor=#FFF2CC;fontFamily=Verdana;" vertex="1" parent="1">
          <mxGeometry x="5040.25" y="1624" width="210" height="80" as="geometry" />
        </mxCell>
        <mxCell id="vSxFJ0PzRZHDn2nLdWeI-64" value="" style="group;fontFamily=Verdana;fontStyle=1" connectable="0" vertex="1" parent="1">
          <mxGeometry x="4950.25" y="428" width="60" height="60" as="geometry" />
        </mxCell>
        <mxCell id="vSxFJ0PzRZHDn2nLdWeI-65" value="" style="ellipse;whiteSpace=wrap;html=1;aspect=fixed;fillColor=#000000;fontFamily=Verdana;" vertex="1" parent="vSxFJ0PzRZHDn2nLdWeI-64">
          <mxGeometry x="15" y="30" width="30" height="30" as="geometry" />
        </mxCell>
        <mxCell id="vSxFJ0PzRZHDn2nLdWeI-66" value="&lt;b&gt;ID_Membresia&lt;/b&gt;" style="text;html=1;strokeColor=none;fillColor=none;align=center;verticalAlign=middle;whiteSpace=wrap;rounded=0;fontFamily=Verdana;" vertex="1" parent="vSxFJ0PzRZHDn2nLdWeI-64">
          <mxGeometry width="60" height="30" as="geometry" />
        </mxCell>
        <mxCell id="vSxFJ0PzRZHDn2nLdWeI-67" value="" style="endArrow=none;html=1;rounded=0;entryX=1;entryY=1;entryDx=0;entryDy=0;exitX=0;exitY=0;exitDx=0;exitDy=0;fontFamily=Verdana;" edge="1" parent="1" source="vSxFJ0PzRZHDn2nLdWeI-178" target="vSxFJ0PzRZHDn2nLdWeI-65">
          <mxGeometry width="50" height="50" relative="1" as="geometry">
            <mxPoint x="5112.75" y="549" as="sourcePoint" />
            <mxPoint x="4285.75" y="114" as="targetPoint" />
          </mxGeometry>
        </mxCell>
        <mxCell id="vSxFJ0PzRZHDn2nLdWeI-68" value="" style="group;fontFamily=Verdana;" connectable="0" vertex="1" parent="1">
          <mxGeometry x="5590" y="1067.5" width="180" height="60" as="geometry" />
        </mxCell>
        <mxCell id="vSxFJ0PzRZHDn2nLdWeI-69" value="" style="group;fontFamily=Verdana;" connectable="0" vertex="1" parent="vSxFJ0PzRZHDn2nLdWeI-68">
          <mxGeometry x="5" width="175" height="60" as="geometry" />
        </mxCell>
        <mxCell id="vSxFJ0PzRZHDn2nLdWeI-71" value="" style="group;fontFamily=Verdana;" connectable="0" vertex="1" parent="vSxFJ0PzRZHDn2nLdWeI-69">
          <mxGeometry x="44.75" width="93" height="60" as="geometry" />
        </mxCell>
        <mxCell id="vSxFJ0PzRZHDn2nLdWeI-72" value="&lt;span style=&quot;color: rgba(0, 0, 0, 0); font-family: monospace; font-size: 0px; text-align: start; text-wrap-mode: nowrap;&quot;&gt;%3CmxGraphModel%3E%3Croot%3E%3CmxCell%20id%3D%220%22%2F%3E%3CmxCell%20id%3D%221%22%20parent%3D%220%22%2F%3E%3CmxCell%20id%3D%222%22%20value%3D%22%22%20style%3D%22group%3BfontFamily%3DVerdana%3B%22%20connectable%3D%220%22%20vertex%3D%221%22%20parent%3D%221%22%3E%3CmxGeometry%20x%3D%225350.25%22%20y%3D%221089%22%20width%3D%22180%22%20height%3D%2260%22%20as%3D%22geometry%22%2F%3E%3C%2FmxCell%3E%3CmxCell%20id%3D%223%22%20value%3D%22%22%20style%3D%22group%3BfontFamily%3DVerdana%3B%22%20connectable%3D%220%22%20vertex%3D%221%22%20parent%3D%222%22%3E%3CmxGeometry%20x%3D%225%22%20width%3D%22175%22%20height%3D%2260%22%20as%3D%22geometry%22%2F%3E%3C%2FmxCell%3E%3CmxCell%20id%3D%224%22%20value%3D%22%22%20style%3D%22group%3BfontFamily%3DVerdana%3B%22%20connectable%3D%220%22%20vertex%3D%221%22%20parent%3D%223%22%3E%3CmxGeometry%20x%3D%2244.75%22%20width%3D%2293%22%20height%3D%2260%22%20as%3D%22geometry%22%2F%3E%3C%2FmxCell%3E%3CmxCell%20id%3D%225%22%20value%3D%22%22%20style%3D%22ellipse%3BwhiteSpace%3Dwrap%3Bhtml%3D1%3Baspect%3Dfixed%3BfillColor%3D%23CCE5FF%3BfontFamily%3DVerdana%3B%22%20vertex%3D%221%22%20parent%3D%224%22%3E%3CmxGeometry%20x%3D%2227%22%20y%3D%2230%22%20width%3D%2230%22%20height%3D%2230%22%20as%3D%22geometry%22%2F%3E%3C%2FmxCell%3E%3CmxCell%20id%3D%226%22%20value%3D%22Nombre%22%20style%3D%22text%3Bhtml%3D1%3BstrokeColor%3Dnone%3BfillColor%3Dnone%3Balign%3Dcenter%3BverticalAlign%3Dmiddle%3BwhiteSpace%3Dwrap%3Brounded%3D0%3BfontFamily%3DVerdana%3B%22%20vertex%3D%221%22%20parent%3D%224%22%3E%3CmxGeometry%20x%3D%2212%22%20width%3D%2260%22%20height%3D%2230%22%20as%3D%22geometry%22%2F%3E%3C%2FmxCell%3E%3CmxCell%20id%3D%227%22%20value%3D%22%22%20style%3D%22ellipse%3BwhiteSpace%3Dwrap%3Bhtml%3D1%3Baspect%3Dfixed%3BfillColor%3D%23CCE5FF%3BfontFamily%3DVerdana%3B%22%20vertex%3D%221%22%20parent%3D%223%22%3E%3CmxGeometry%20x%3D%22-443.79999999999995%22%20y%3D%22453.5%22%20width%3D%2230%22%20height%3D%2230%22%20as%3D%22geometry%22%2F%3E%3C%2FmxCell%3E%3CmxCell%20id%3D%228%22%20value%3D%22Hora_Reserva_ini%22%20style%3D%22text%3Bhtml%3D1%3BstrokeColor%3Dnone%3BfillColor%3Dnone%3Balign%3Dcenter%3BverticalAlign%3Dmiddle%3BwhiteSpace%3Dwrap%3Brounded%3D0%3BfontFamily%3DVerdana%3B%22%20vertex%3D%221%22%20parent%3D%223%22%3E%3CmxGeometry%20x%3D%22-453.79999999999995%22%20y%3D%22428.5%22%20width%3D%2260%22%20height%3D%2230%22%20as%3D%22geometry%22%2F%3E%3C%2FmxCell%3E%3CmxCell%20id%3D%229%22%20value%3D%22%22%20style%3D%22ellipse%3BwhiteSpace%3Dwrap%3Bhtml%3D1%3Baspect%3Dfixed%3BfillColor%3D%23CCE5FF%3BfontFamily%3DVerdana%3B%22%20vertex%3D%221%22%20parent%3D%223%22%3E%3CmxGeometry%20x%3D%225.75%22%20y%3D%2230%22%20width%3D%2230%22%20height%3D%2230%22%20as%3D%22geometry%22%2F%3E%3C%2FmxCell%3E%3CmxCell%20id%3D%2210%22%20value%3D%22Capacidad%22%20style%3D%22text%3Bhtml%3D1%3BstrokeColor%3Dnone%3BfillColor%3Dnone%3Balign%3Dcenter%3BverticalAlign%3Dmiddle%3BwhiteSpace%3Dwrap%3Brounded%3D0%3BfontFamily%3DVerdana%3B%22%20vertex%3D%221%22%20parent%3D%223%22%3E%3CmxGeometry%20x%3D%22-9.25%22%20width%3D%2260%22%20height%3D%2230%22%20as%3D%22geometry%22%2F%3E%3C%2FmxCell%3E%3C%2Froot%3E%3C%2FmxGraphModel%3E&lt;/span&gt;" style="ellipse;whiteSpace=wrap;html=1;aspect=fixed;fillColor=#CCE5FF;fontFamily=Verdana;" vertex="1" parent="vSxFJ0PzRZHDn2nLdWeI-71">
          <mxGeometry x="27" y="30" width="30" height="30" as="geometry" />
        </mxCell>
        <mxCell id="vSxFJ0PzRZHDn2nLdWeI-73" value="Nombre" style="text;html=1;strokeColor=none;fillColor=none;align=center;verticalAlign=middle;whiteSpace=wrap;rounded=0;fontFamily=Verdana;" vertex="1" parent="vSxFJ0PzRZHDn2nLdWeI-71">
          <mxGeometry x="12" width="60" height="30" as="geometry" />
        </mxCell>
        <mxCell id="vSxFJ0PzRZHDn2nLdWeI-74" value="" style="ellipse;whiteSpace=wrap;html=1;aspect=fixed;fillColor=#CCE5FF;fontFamily=Verdana;" vertex="1" parent="vSxFJ0PzRZHDn2nLdWeI-69">
          <mxGeometry x="-443.79999999999995" y="453.5" width="30" height="30" as="geometry" />
        </mxCell>
        <mxCell id="vSxFJ0PzRZHDn2nLdWeI-75" value="Hora_Reserva_ini" style="text;html=1;strokeColor=none;fillColor=none;align=center;verticalAlign=middle;whiteSpace=wrap;rounded=0;fontFamily=Verdana;" vertex="1" parent="vSxFJ0PzRZHDn2nLdWeI-69">
          <mxGeometry x="-453.79999999999995" y="428.5" width="60" height="30" as="geometry" />
        </mxCell>
        <mxCell id="vSxFJ0PzRZHDn2nLdWeI-82" value="" style="ellipse;whiteSpace=wrap;html=1;aspect=fixed;fillColor=#CCE5FF;fontFamily=Verdana;" vertex="1" parent="vSxFJ0PzRZHDn2nLdWeI-69">
          <mxGeometry x="5.75" y="30" width="30" height="30" as="geometry" />
        </mxCell>
        <mxCell id="vSxFJ0PzRZHDn2nLdWeI-83" value="Capacidad" style="text;html=1;strokeColor=none;fillColor=none;align=center;verticalAlign=middle;whiteSpace=wrap;rounded=0;fontFamily=Verdana;" vertex="1" parent="vSxFJ0PzRZHDn2nLdWeI-69">
          <mxGeometry x="-9.25" width="60" height="30" as="geometry" />
        </mxCell>
        <mxCell id="vSxFJ0PzRZHDn2nLdWeI-77" value="" style="endArrow=none;html=1;rounded=0;exitX=0.142;exitY=0.007;exitDx=0;exitDy=0;entryX=0.611;entryY=0.996;entryDx=0;entryDy=0;entryPerimeter=0;fontFamily=Verdana;exitPerimeter=0;" edge="1" parent="1" source="vSxFJ0PzRZHDn2nLdWeI-62" target="vSxFJ0PzRZHDn2nLdWeI-78">
          <mxGeometry width="50" height="50" relative="1" as="geometry">
            <mxPoint x="5490.25" y="1170.5" as="sourcePoint" />
            <mxPoint x="5520.25" y="1090.5" as="targetPoint" />
          </mxGeometry>
        </mxCell>
        <mxCell id="vSxFJ0PzRZHDn2nLdWeI-78" value="" style="ellipse;whiteSpace=wrap;html=1;aspect=fixed;fillColor=#000000;fontFamily=Verdana;" vertex="1" parent="1">
          <mxGeometry x="5510.25" y="1099" width="30" height="30" as="geometry" />
        </mxCell>
        <mxCell id="vSxFJ0PzRZHDn2nLdWeI-79" value="ID_instalacion" style="text;html=1;strokeColor=none;fillColor=none;align=center;verticalAlign=middle;whiteSpace=wrap;rounded=0;fontFamily=Verdana;fontStyle=1" vertex="1" parent="1">
          <mxGeometry x="5495.25" y="1068" width="60" height="30" as="geometry" />
        </mxCell>
        <mxCell id="vSxFJ0PzRZHDn2nLdWeI-80" value="" style="endArrow=none;html=1;rounded=0;entryX=0.5;entryY=1;entryDx=0;entryDy=0;exitX=0.569;exitY=0.007;exitDx=0;exitDy=0;exitPerimeter=0;fontFamily=Verdana;" edge="1" parent="1" source="vSxFJ0PzRZHDn2nLdWeI-62" target="vSxFJ0PzRZHDn2nLdWeI-82">
          <mxGeometry width="50" height="50" relative="1" as="geometry">
            <mxPoint x="5581.25" y="1193" as="sourcePoint" />
            <mxPoint x="5450.25" y="1100.5" as="targetPoint" />
          </mxGeometry>
        </mxCell>
        <mxCell id="vSxFJ0PzRZHDn2nLdWeI-84" value="" style="endArrow=none;html=1;rounded=0;exitX=0.892;exitY=0.007;exitDx=0;exitDy=0;entryX=0.5;entryY=1;entryDx=0;entryDy=0;exitPerimeter=0;fontFamily=Verdana;" edge="1" parent="1" source="vSxFJ0PzRZHDn2nLdWeI-62" target="vSxFJ0PzRZHDn2nLdWeI-72">
          <mxGeometry width="50" height="50" relative="1" as="geometry">
            <mxPoint x="5694.75" y="1203.5" as="sourcePoint" />
            <mxPoint x="5586.75" y="1101.5" as="targetPoint" />
          </mxGeometry>
        </mxCell>
        <mxCell id="vSxFJ0PzRZHDn2nLdWeI-85" value="" style="ellipse;whiteSpace=wrap;html=1;aspect=fixed;fillColor=#000000;fontFamily=Verdana;" vertex="1" parent="1">
          <mxGeometry x="3695" y="1340.5" width="30" height="30" as="geometry" />
        </mxCell>
        <mxCell id="vSxFJ0PzRZHDn2nLdWeI-86" value="&lt;b&gt;ID_Entrenador&lt;/b&gt;" style="text;html=1;strokeColor=none;fillColor=none;align=center;verticalAlign=middle;whiteSpace=wrap;rounded=0;fontFamily=Verdana;" vertex="1" parent="1">
          <mxGeometry x="3680" y="1379.5" width="60" height="30" as="geometry" />
        </mxCell>
        <mxCell id="vSxFJ0PzRZHDn2nLdWeI-87" value="" style="ellipse;whiteSpace=wrap;html=1;aspect=fixed;fillColor=#CCE5FF;fontFamily=Verdana;" vertex="1" parent="1">
          <mxGeometry x="3767" y="1340.5" width="30" height="30" as="geometry" />
        </mxCell>
        <mxCell id="vSxFJ0PzRZHDn2nLdWeI-88" value="Nombre" style="text;html=1;strokeColor=none;fillColor=none;align=center;verticalAlign=middle;whiteSpace=wrap;rounded=0;fontFamily=Verdana;" vertex="1" parent="1">
          <mxGeometry x="3760" y="1379.5" width="60" height="30" as="geometry" />
        </mxCell>
        <mxCell id="vSxFJ0PzRZHDn2nLdWeI-89" value="" style="group;fontFamily=Verdana;" connectable="0" vertex="1" parent="1">
          <mxGeometry x="3820" y="1309.5" width="60" height="60" as="geometry" />
        </mxCell>
        <mxCell id="vSxFJ0PzRZHDn2nLdWeI-90" value="" style="ellipse;whiteSpace=wrap;html=1;aspect=fixed;fillColor=#CCE5FF;fontFamily=Verdana;" vertex="1" parent="vSxFJ0PzRZHDn2nLdWeI-89">
          <mxGeometry x="15" y="30" width="30" height="30" as="geometry" />
        </mxCell>
        <mxCell id="vSxFJ0PzRZHDn2nLdWeI-91" value="&lt;div&gt;Sueldo&lt;/div&gt;" style="text;html=1;strokeColor=none;fillColor=none;align=center;verticalAlign=middle;whiteSpace=wrap;rounded=0;fontFamily=Verdana;" vertex="1" parent="1">
          <mxGeometry x="3820" y="1379.5" width="60" height="30" as="geometry" />
        </mxCell>
        <mxCell id="vSxFJ0PzRZHDn2nLdWeI-92" value="" style="ellipse;whiteSpace=wrap;html=1;aspect=fixed;fillColor=#CCE5FF;fontFamily=Verdana;" vertex="1" parent="1">
          <mxGeometry x="5160.25" y="807.5" width="30" height="30" as="geometry" />
        </mxCell>
        <mxCell id="vSxFJ0PzRZHDn2nLdWeI-93" value="Fecha_pago" style="text;html=1;strokeColor=none;fillColor=none;align=center;verticalAlign=middle;whiteSpace=wrap;rounded=0;fontFamily=Verdana;" vertex="1" parent="1">
          <mxGeometry x="5151.75" y="777.5" width="60" height="30" as="geometry" />
        </mxCell>
        <mxCell id="vSxFJ0PzRZHDn2nLdWeI-94" value="Monto" style="text;html=1;strokeColor=none;fillColor=none;align=center;verticalAlign=middle;whiteSpace=wrap;rounded=0;fontFamily=Verdana;" vertex="1" parent="1">
          <mxGeometry x="5210.25" y="777.5" width="60" height="30" as="geometry" />
        </mxCell>
        <mxCell id="vSxFJ0PzRZHDn2nLdWeI-95" value="*Fecha_Vencimiento" style="text;html=1;strokeColor=none;fillColor=none;align=center;verticalAlign=middle;whiteSpace=wrap;rounded=0;fontFamily=Verdana;" vertex="1" parent="1">
          <mxGeometry x="5131.75" y="410" width="60" height="30" as="geometry" />
        </mxCell>
        <mxCell id="vSxFJ0PzRZHDn2nLdWeI-96" value="" style="endArrow=none;html=1;rounded=0;entryX=0.5;entryY=1;entryDx=0;entryDy=0;exitX=0.386;exitY=-0.001;exitDx=0;exitDy=0;exitPerimeter=0;fontFamily=Verdana;" edge="1" parent="1" source="vSxFJ0PzRZHDn2nLdWeI-56" target="vSxFJ0PzRZHDn2nLdWeI-92">
          <mxGeometry width="50" height="50" relative="1" as="geometry">
            <mxPoint x="5160.25" y="881.25" as="sourcePoint" />
            <mxPoint x="5134.25" y="787.25" as="targetPoint" />
          </mxGeometry>
        </mxCell>
        <mxCell id="vSxFJ0PzRZHDn2nLdWeI-97" value="" style="endArrow=none;html=1;rounded=0;entryX=0.5;entryY=1;entryDx=0;entryDy=0;exitX=0.659;exitY=0.01;exitDx=0;exitDy=0;exitPerimeter=0;fontFamily=Verdana;" edge="1" parent="1" source="vSxFJ0PzRZHDn2nLdWeI-56" target="vSxFJ0PzRZHDn2nLdWeI-222">
          <mxGeometry width="50" height="50" relative="1" as="geometry">
            <mxPoint x="5170.25" y="891.25" as="sourcePoint" />
            <mxPoint x="5301.75" y="837.5" as="targetPoint" />
          </mxGeometry>
        </mxCell>
        <mxCell id="vSxFJ0PzRZHDn2nLdWeI-98" value="" style="endArrow=none;html=1;rounded=0;entryX=0.5;entryY=1;entryDx=0;entryDy=0;exitX=0.5;exitY=0;exitDx=0;exitDy=0;fontFamily=Verdana;" edge="1" parent="1" source="vSxFJ0PzRZHDn2nLdWeI-178" target="vSxFJ0PzRZHDn2nLdWeI-218">
          <mxGeometry width="50" height="50" relative="1" as="geometry">
            <mxPoint x="5191.549999999999" y="549.6400000000001" as="sourcePoint" />
            <mxPoint x="5149.25" y="483" as="targetPoint" />
          </mxGeometry>
        </mxCell>
        <mxCell id="vSxFJ0PzRZHDn2nLdWeI-99" value="" style="endArrow=none;html=1;rounded=0;entryX=0.5;entryY=1;entryDx=0;entryDy=0;exitX=0.635;exitY=0.004;exitDx=0;exitDy=0;exitPerimeter=0;fontFamily=Verdana;" edge="1" parent="1" source="vSxFJ0PzRZHDn2nLdWeI-55" target="vSxFJ0PzRZHDn2nLdWeI-49">
          <mxGeometry width="50" height="50" relative="1" as="geometry">
            <mxPoint x="4290.25" y="749" as="sourcePoint" />
            <mxPoint x="4300.25" y="689" as="targetPoint" />
          </mxGeometry>
        </mxCell>
        <mxCell id="vSxFJ0PzRZHDn2nLdWeI-100" value="" style="endArrow=none;html=1;rounded=0;exitX=0.5;exitY=0;exitDx=0;exitDy=0;entryX=0.091;entryY=1.001;entryDx=0;entryDy=0;entryPerimeter=0;fontFamily=Verdana;" edge="1" parent="1" source="vSxFJ0PzRZHDn2nLdWeI-85" target="vSxFJ0PzRZHDn2nLdWeI-61">
          <mxGeometry width="50" height="50" relative="1" as="geometry">
            <mxPoint x="3713.1" y="1451.1" as="sourcePoint" />
            <mxPoint x="3431.5" y="1382.5" as="targetPoint" />
          </mxGeometry>
        </mxCell>
        <mxCell id="vSxFJ0PzRZHDn2nLdWeI-101" value="" style="endArrow=none;html=1;rounded=0;exitX=0.5;exitY=0;exitDx=0;exitDy=0;entryX=0.384;entryY=1.001;entryDx=0;entryDy=0;entryPerimeter=0;fontFamily=Verdana;" edge="1" parent="1" source="vSxFJ0PzRZHDn2nLdWeI-87" target="vSxFJ0PzRZHDn2nLdWeI-61">
          <mxGeometry width="50" height="50" relative="1" as="geometry">
            <mxPoint x="3777.9" y="1452.06" as="sourcePoint" />
            <mxPoint x="3713.5" y="1382.5" as="targetPoint" />
          </mxGeometry>
        </mxCell>
        <mxCell id="vSxFJ0PzRZHDn2nLdWeI-102" value="" style="endArrow=none;html=1;rounded=0;exitX=0.75;exitY=1;exitDx=0;exitDy=0;fontFamily=Verdana;" edge="1" parent="1" source="vSxFJ0PzRZHDn2nLdWeI-61">
          <mxGeometry width="50" height="50" relative="1" as="geometry">
            <mxPoint x="3850.5" y="1451.5" as="sourcePoint" />
            <mxPoint x="3850" y="1340.5" as="targetPoint" />
          </mxGeometry>
        </mxCell>
        <mxCell id="vSxFJ0PzRZHDn2nLdWeI-103" value="(1,N)" style="text;whiteSpace=wrap;fontSize=12;fontFamily=Verdana;" vertex="1" parent="1">
          <mxGeometry x="4220" y="829" width="50" height="30" as="geometry" />
        </mxCell>
        <mxCell id="vSxFJ0PzRZHDn2nLdWeI-104" value="" style="ellipse;whiteSpace=wrap;html=1;aspect=fixed;fillColor=#CCE5FF;fontFamily=Verdana;" vertex="1" parent="1">
          <mxGeometry x="5225.25" y="443" width="30" height="30" as="geometry" />
        </mxCell>
        <mxCell id="vSxFJ0PzRZHDn2nLdWeI-105" value="Categoría" style="text;html=1;strokeColor=none;fillColor=none;align=center;verticalAlign=middle;whiteSpace=wrap;rounded=0;fontFamily=Verdana;" vertex="1" parent="1">
          <mxGeometry x="5235.25" y="410" width="60" height="30" as="geometry" />
        </mxCell>
        <mxCell id="vSxFJ0PzRZHDn2nLdWeI-107" value="Efectúa" style="shape=rhombus;perimeter=rhombusPerimeter;whiteSpace=wrap;html=1;align=center;fillColor=#FFF2CC;fontFamily=Verdana;" vertex="1" parent="1">
          <mxGeometry x="4556.25" y="894" width="210" height="80" as="geometry" />
        </mxCell>
        <mxCell id="vSxFJ0PzRZHDn2nLdWeI-108" value="Contrata" style="shape=rhombus;perimeter=rhombusPerimeter;whiteSpace=wrap;html=1;align=center;fillColor=#FFF2CC;fontFamily=Verdana;" vertex="1" parent="1">
          <mxGeometry x="4556.25" y="549" width="210" height="80" as="geometry" />
        </mxCell>
        <mxCell id="vSxFJ0PzRZHDn2nLdWeI-109" value="" style="endArrow=none;html=1;rounded=0;entryX=1;entryY=0.75;entryDx=0;entryDy=0;exitX=0.5;exitY=0;exitDx=0;exitDy=0;edgeStyle=orthogonalEdgeStyle;fontFamily=Verdana;" edge="1" parent="1" source="vSxFJ0PzRZHDn2nLdWeI-107" target="vSxFJ0PzRZHDn2nLdWeI-55">
          <mxGeometry width="50" height="50" relative="1" as="geometry">
            <mxPoint x="3985.25" y="1009" as="sourcePoint" />
            <mxPoint x="4295.25" y="839" as="targetPoint" />
          </mxGeometry>
        </mxCell>
        <mxCell id="vSxFJ0PzRZHDn2nLdWeI-110" value="" style="endArrow=none;html=1;rounded=0;entryX=1;entryY=0.5;entryDx=0;entryDy=0;exitX=0;exitY=0.5;exitDx=0;exitDy=0;fontFamily=Verdana;" edge="1" parent="1" source="vSxFJ0PzRZHDn2nLdWeI-56" target="vSxFJ0PzRZHDn2nLdWeI-107">
          <mxGeometry width="50" height="50" relative="1" as="geometry">
            <mxPoint x="4445.25" y="533" as="sourcePoint" />
            <mxPoint x="4255.25" y="779" as="targetPoint" />
          </mxGeometry>
        </mxCell>
        <mxCell id="vSxFJ0PzRZHDn2nLdWeI-111" value="" style="endArrow=none;html=1;rounded=0;entryX=1;entryY=0.5;entryDx=0;entryDy=0;exitX=0;exitY=0.5;exitDx=0;exitDy=0;fontFamily=Verdana;" edge="1" parent="1" source="vSxFJ0PzRZHDn2nLdWeI-178" target="vSxFJ0PzRZHDn2nLdWeI-108">
          <mxGeometry width="50" height="50" relative="1" as="geometry">
            <mxPoint x="4970.25" y="589" as="sourcePoint" />
            <mxPoint x="4485.25" y="379" as="targetPoint" />
          </mxGeometry>
        </mxCell>
        <mxCell id="vSxFJ0PzRZHDn2nLdWeI-112" value="" style="endArrow=none;html=1;rounded=0;entryX=1;entryY=0.25;entryDx=0;entryDy=0;edgeStyle=orthogonalEdgeStyle;exitX=0.5;exitY=1;exitDx=0;exitDy=0;fontFamily=Verdana;" edge="1" parent="1" source="vSxFJ0PzRZHDn2nLdWeI-108" target="vSxFJ0PzRZHDn2nLdWeI-55">
          <mxGeometry width="50" height="50" relative="1" as="geometry">
            <mxPoint x="4750.25" y="909" as="sourcePoint" />
            <mxPoint x="4395.25" y="779" as="targetPoint" />
          </mxGeometry>
        </mxCell>
        <mxCell id="vSxFJ0PzRZHDn2nLdWeI-113" value="&lt;font style=&quot;font-size: 15px;&quot; color=&quot;#006600&quot;&gt;&lt;b style=&quot;&quot;&gt;Efectua&lt;/b&gt;&lt;/font&gt;" style="text;html=1;align=center;verticalAlign=middle;resizable=0;points=[];autosize=1;strokeColor=none;fillColor=none;rotation=-90;fontFamily=Verdana;" vertex="1" parent="1">
          <mxGeometry x="4590.25" y="845.25" width="90" height="30" as="geometry" />
        </mxCell>
        <mxCell id="vSxFJ0PzRZHDn2nLdWeI-114" value="&lt;font style=&quot;font-size: 15px;&quot; color=&quot;#006600&quot;&gt;&lt;b style=&quot;&quot;&gt;Contrata&lt;/b&gt;&lt;/font&gt;" style="text;html=1;align=center;verticalAlign=middle;resizable=0;points=[];autosize=1;strokeColor=none;fillColor=none;rotation=-90;fontFamily=Verdana;" vertex="1" parent="1">
          <mxGeometry x="4585.25" y="669" width="100" height="30" as="geometry" />
        </mxCell>
        <mxCell id="vSxFJ0PzRZHDn2nLdWeI-115" value="&lt;font color=&quot;#006600&quot;&gt;&lt;span style=&quot;font-size: 15px;&quot;&gt;&lt;b&gt;Es contratado&lt;/b&gt;&lt;/span&gt;&lt;/font&gt;" style="text;html=1;align=center;verticalAlign=middle;resizable=0;points=[];autosize=1;strokeColor=none;fillColor=none;rotation=0;fontFamily=Verdana;" vertex="1" parent="1">
          <mxGeometry x="4835" y="599" width="140" height="30" as="geometry" />
        </mxCell>
        <mxCell id="vSxFJ0PzRZHDn2nLdWeI-116" value="&lt;font color=&quot;#006600&quot;&gt;&lt;span style=&quot;font-size: 15px;&quot;&gt;&lt;b&gt;Es efectuado&lt;/b&gt;&lt;/span&gt;&lt;/font&gt;" style="text;html=1;align=center;verticalAlign=middle;resizable=0;points=[];autosize=1;strokeColor=none;fillColor=none;rotation=0;fontFamily=Verdana;" vertex="1" parent="1">
          <mxGeometry x="4840" y="904" width="130" height="30" as="geometry" />
        </mxCell>
        <mxCell id="vSxFJ0PzRZHDn2nLdWeI-118" value="(1,N)" style="text;whiteSpace=wrap;fontSize=12;fontFamily=Verdana;" vertex="1" parent="1">
          <mxGeometry x="4376.25" y="815.25" width="50" height="30" as="geometry" />
        </mxCell>
        <mxCell id="vSxFJ0PzRZHDn2nLdWeI-119" value="&lt;font color=&quot;#ff0000&quot; style=&quot;font-size: 11px;&quot;&gt;&lt;span&gt;1:1&lt;/span&gt;&lt;/font&gt;" style="text;html=1;align=center;verticalAlign=middle;resizable=0;points=[];autosize=1;strokeColor=none;fillColor=none;fontFamily=Verdana;fontStyle=1" vertex="1" parent="1">
          <mxGeometry x="4511.25" y="574" width="40" height="30" as="geometry" />
        </mxCell>
        <mxCell id="vSxFJ0PzRZHDn2nLdWeI-120" value="&lt;font color=&quot;#ff0000&quot; style=&quot;font-size: 11px;&quot;&gt;1:N&lt;/font&gt;" style="text;html=1;align=center;verticalAlign=middle;resizable=0;points=[];autosize=1;strokeColor=none;fillColor=none;fontFamily=Verdana;fontStyle=1" vertex="1" parent="1">
          <mxGeometry x="4511.25" y="919" width="40" height="30" as="geometry" />
        </mxCell>
        <mxCell id="vSxFJ0PzRZHDn2nLdWeI-122" value="" style="endArrow=none;html=1;rounded=0;exitX=0.947;exitY=0.002;exitDx=0;exitDy=0;entryX=0.5;entryY=1;entryDx=0;entryDy=0;elbow=vertical;exitPerimeter=0;fontFamily=Verdana;" edge="1" parent="1" source="vSxFJ0PzRZHDn2nLdWeI-55" target="vSxFJ0PzRZHDn2nLdWeI-51">
          <mxGeometry width="50" height="50" relative="1" as="geometry">
            <mxPoint x="4320.25" y="759" as="sourcePoint" />
            <mxPoint x="4430" y="630" as="targetPoint" />
          </mxGeometry>
        </mxCell>
        <mxCell id="vSxFJ0PzRZHDn2nLdWeI-123" value="" style="group;fontFamily=Verdana;" connectable="0" vertex="1" parent="1">
          <mxGeometry x="3900.25" y="1310.5" width="60" height="60" as="geometry" />
        </mxCell>
        <mxCell id="vSxFJ0PzRZHDn2nLdWeI-124" value="" style="ellipse;whiteSpace=wrap;html=1;aspect=fixed;fillColor=#CCE5FF;fontFamily=Verdana;" vertex="1" parent="vSxFJ0PzRZHDn2nLdWeI-123">
          <mxGeometry x="15" y="30" width="30" height="30" as="geometry" />
        </mxCell>
        <mxCell id="vSxFJ0PzRZHDn2nLdWeI-125" value="" style="endArrow=none;html=1;rounded=0;exitX=0.908;exitY=1.001;exitDx=0;exitDy=0;entryX=0.5;entryY=0;entryDx=0;entryDy=0;exitPerimeter=0;fontFamily=Verdana;" edge="1" parent="1" source="vSxFJ0PzRZHDn2nLdWeI-61" target="vSxFJ0PzRZHDn2nLdWeI-124">
          <mxGeometry width="50" height="50" relative="1" as="geometry">
            <mxPoint x="3900.5" y="1451.5" as="sourcePoint" />
            <mxPoint x="3871.5" y="1380.5" as="targetPoint" />
          </mxGeometry>
        </mxCell>
        <mxCell id="vSxFJ0PzRZHDn2nLdWeI-126" value="Entrena" style="shape=rhombus;perimeter=rhombusPerimeter;whiteSpace=wrap;html=1;align=center;fillColor=#FFF2CC;fontFamily=Verdana;" vertex="1" parent="1">
          <mxGeometry x="4159.75" y="1624" width="210" height="80" as="geometry" />
        </mxCell>
        <mxCell id="vSxFJ0PzRZHDn2nLdWeI-127" value="&lt;div&gt;Seguridad_Social&lt;/div&gt;" style="text;html=1;strokeColor=none;fillColor=none;align=center;verticalAlign=middle;whiteSpace=wrap;rounded=0;fontFamily=Verdana;" vertex="1" parent="1">
          <mxGeometry x="3900.25" y="1378" width="60" height="30" as="geometry" />
        </mxCell>
        <mxCell id="vSxFJ0PzRZHDn2nLdWeI-128" value="" style="ellipse;whiteSpace=wrap;html=1;aspect=fixed;fillColor=#000000;fontFamily=Verdana;" vertex="1" parent="1">
          <mxGeometry x="5045.25" y="807.5" width="30" height="30" as="geometry" />
        </mxCell>
        <mxCell id="vSxFJ0PzRZHDn2nLdWeI-129" value="ID_Pago" style="text;html=1;strokeColor=none;fillColor=none;align=center;verticalAlign=middle;whiteSpace=wrap;rounded=0;fontFamily=Verdana;fontStyle=1" vertex="1" parent="1">
          <mxGeometry x="5017.75" y="777.5" width="60" height="30" as="geometry" />
        </mxCell>
        <mxCell id="vSxFJ0PzRZHDn2nLdWeI-130" value="(1,1)" style="text;whiteSpace=wrap;fontSize=12;fontFamily=Verdana;" vertex="1" parent="1">
          <mxGeometry x="5017.75" y="589" width="50" height="30" as="geometry" />
        </mxCell>
        <mxCell id="vSxFJ0PzRZHDn2nLdWeI-131" value="" style="endArrow=classic;html=1;rounded=0;flowAnimation=0;edgeStyle=orthogonalEdgeStyle;curved=1;fontFamily=Verdana;" edge="1" parent="1">
          <mxGeometry width="50" height="50" relative="1" as="geometry">
            <mxPoint x="4500" y="731.5" as="sourcePoint" />
            <mxPoint x="4496.25" y="846.5" as="targetPoint" />
            <Array as="points">
              <mxPoint x="4530" y="732" />
              <mxPoint x="4530" y="847" />
            </Array>
          </mxGeometry>
        </mxCell>
        <mxCell id="vSxFJ0PzRZHDn2nLdWeI-133" value="" style="endArrow=none;html=1;rounded=0;entryX=0;entryY=0.5;entryDx=0;entryDy=0;edgeStyle=orthogonalEdgeStyle;exitX=0;exitY=0.5;exitDx=0;exitDy=0;fontFamily=Verdana;" edge="1" parent="1" source="vSxFJ0PzRZHDn2nLdWeI-126" target="vSxFJ0PzRZHDn2nLdWeI-61">
          <mxGeometry width="50" height="50" relative="1" as="geometry">
            <mxPoint x="4260.25" y="1329" as="sourcePoint" />
            <mxPoint x="4295.25" y="1198" as="targetPoint" />
            <Array as="points">
              <mxPoint x="3650" y="1664" />
              <mxPoint x="3650" y="1233" />
            </Array>
          </mxGeometry>
        </mxCell>
        <mxCell id="vSxFJ0PzRZHDn2nLdWeI-134" value="Deporte" style="rounded=0;whiteSpace=wrap;html=1;fillColor=#CCE5FF;fontFamily=Verdana;" vertex="1" parent="1">
          <mxGeometry x="4611.25" y="1624" width="200" height="80" as="geometry" />
        </mxCell>
        <mxCell id="vSxFJ0PzRZHDn2nLdWeI-135" value="" style="endArrow=none;html=1;rounded=0;entryX=0;entryY=0.5;entryDx=0;entryDy=0;edgeStyle=orthogonalEdgeStyle;exitX=1;exitY=0.5;exitDx=0;exitDy=0;fontFamily=Verdana;" edge="1" parent="1" source="vSxFJ0PzRZHDn2nLdWeI-126" target="vSxFJ0PzRZHDn2nLdWeI-134">
          <mxGeometry width="50" height="50" relative="1" as="geometry">
            <mxPoint x="4276.25" y="1714" as="sourcePoint" />
            <mxPoint x="4276.25" y="1951" as="targetPoint" />
            <Array as="points">
              <mxPoint x="4386" y="1664" />
            </Array>
          </mxGeometry>
        </mxCell>
        <mxCell id="vSxFJ0PzRZHDn2nLdWeI-136" value="" style="group;fontFamily=Verdana;fontStyle=1" connectable="0" vertex="1" parent="1">
          <mxGeometry x="4751.25" y="1490" width="60" height="60" as="geometry" />
        </mxCell>
        <mxCell id="vSxFJ0PzRZHDn2nLdWeI-138" value="&lt;b&gt;ID_deporte&lt;/b&gt;" style="text;html=1;strokeColor=none;fillColor=none;align=center;verticalAlign=middle;whiteSpace=wrap;rounded=0;fontFamily=Verdana;" vertex="1" parent="vSxFJ0PzRZHDn2nLdWeI-136">
          <mxGeometry width="60" height="30" as="geometry" />
        </mxCell>
        <mxCell id="vSxFJ0PzRZHDn2nLdWeI-265" value="" style="ellipse;whiteSpace=wrap;html=1;aspect=fixed;fillColor=#000000;fontFamily=Verdana;" vertex="1" parent="vSxFJ0PzRZHDn2nLdWeI-136">
          <mxGeometry x="-3.25" y="29" width="30" height="30" as="geometry" />
        </mxCell>
        <mxCell id="vSxFJ0PzRZHDn2nLdWeI-140" value="" style="group;fontFamily=Verdana;" connectable="0" vertex="1" parent="1">
          <mxGeometry x="4682.75" y="1489" width="60" height="60" as="geometry" />
        </mxCell>
        <mxCell id="vSxFJ0PzRZHDn2nLdWeI-141" value="" style="ellipse;whiteSpace=wrap;html=1;aspect=fixed;fillColor=#CCE5FF;fontFamily=Verdana;" vertex="1" parent="vSxFJ0PzRZHDn2nLdWeI-140">
          <mxGeometry x="15" y="30" width="30" height="30" as="geometry" />
        </mxCell>
        <mxCell id="vSxFJ0PzRZHDn2nLdWeI-142" value="Nombre" style="text;html=1;strokeColor=none;fillColor=none;align=center;verticalAlign=middle;whiteSpace=wrap;rounded=0;fontFamily=Verdana;" vertex="1" parent="vSxFJ0PzRZHDn2nLdWeI-140">
          <mxGeometry width="60" height="30" as="geometry" />
        </mxCell>
        <mxCell id="vSxFJ0PzRZHDn2nLdWeI-143" value="" style="endArrow=none;html=1;rounded=0;entryX=0.5;entryY=1;entryDx=0;entryDy=0;exitX=0.5;exitY=0;exitDx=0;exitDy=0;fontFamily=Verdana;" edge="1" parent="1" source="vSxFJ0PzRZHDn2nLdWeI-134" target="vSxFJ0PzRZHDn2nLdWeI-141">
          <mxGeometry width="50" height="50" relative="1" as="geometry">
            <mxPoint x="4712.75" y="1620" as="sourcePoint" />
            <mxPoint x="4642.25" y="1560" as="targetPoint" />
          </mxGeometry>
        </mxCell>
        <mxCell id="vSxFJ0PzRZHDn2nLdWeI-144" value="" style="triangle;whiteSpace=wrap;html=1;rotation=90;fillColor=#FFF2CC;strokeColor=#000000;fontFamily=Verdana;direction=north;" vertex="1" parent="1">
          <mxGeometry x="5991.5" y="1204" width="112.5" height="50" as="geometry" />
        </mxCell>
        <mxCell id="vSxFJ0PzRZHDn2nLdWeI-146" value="" style="endArrow=none;html=1;rounded=0;exitX=0.5;exitY=1;exitDx=0;exitDy=0;entryX=0;entryY=0.5;entryDx=0;entryDy=0;fontFamily=Verdana;" edge="1" parent="1" source="vSxFJ0PzRZHDn2nLdWeI-147" target="vSxFJ0PzRZHDn2nLdWeI-144">
          <mxGeometry width="50" height="50" relative="1" as="geometry">
            <mxPoint x="6404" y="980" as="sourcePoint" />
            <mxPoint x="6404" y="1167" as="targetPoint" />
          </mxGeometry>
        </mxCell>
        <mxCell id="vSxFJ0PzRZHDn2nLdWeI-147" value="" style="ellipse;whiteSpace=wrap;html=1;aspect=fixed;fillColor=#D4E1F5;fontFamily=Verdana;direction=north;" vertex="1" parent="1">
          <mxGeometry x="5980" y="1213" width="41" height="41" as="geometry" />
        </mxCell>
        <mxCell id="vSxFJ0PzRZHDn2nLdWeI-148" value="" style="endArrow=none;html=1;rounded=0;exitX=1;exitY=0.5;exitDx=0;exitDy=0;fontFamily=Verdana;entryX=0.016;entryY=0.017;entryDx=0;entryDy=0;entryPerimeter=0;" edge="1" parent="1" source="vSxFJ0PzRZHDn2nLdWeI-149" target="vSxFJ0PzRZHDn2nLdWeI-144">
          <mxGeometry width="50" height="50" relative="1" as="geometry">
            <mxPoint x="6245" y="1475" as="sourcePoint" />
            <mxPoint x="6024" y="1180" as="targetPoint" />
          </mxGeometry>
        </mxCell>
        <mxCell id="vSxFJ0PzRZHDn2nLdWeI-149" value="" style="ellipse;whiteSpace=wrap;html=1;aspect=fixed;fillColor=#CCE5FF;fontFamily=Verdana;direction=north;" vertex="1" parent="1">
          <mxGeometry x="6010" y="1074" width="30" height="30" as="geometry" />
        </mxCell>
        <mxCell id="vSxFJ0PzRZHDn2nLdWeI-151" value="" style="endArrow=none;html=1;rounded=0;entryX=0;entryY=0.5;entryDx=0;entryDy=0;exitX=1;exitY=0.5;exitDx=0;exitDy=0;fontFamily=Verdana;" edge="1" parent="1" source="vSxFJ0PzRZHDn2nLdWeI-134" target="vSxFJ0PzRZHDn2nLdWeI-63">
          <mxGeometry width="50" height="50" relative="1" as="geometry">
            <mxPoint x="4707.25" y="1634" as="sourcePoint" />
            <mxPoint x="4701.25" y="1560" as="targetPoint" />
          </mxGeometry>
        </mxCell>
        <mxCell id="vSxFJ0PzRZHDn2nLdWeI-153" value="(1,N)" style="text;whiteSpace=wrap;fontSize=12;fontFamily=Verdana;" vertex="1" parent="1">
          <mxGeometry x="4821.25" y="1674" width="50" height="30" as="geometry" />
        </mxCell>
        <mxCell id="vSxFJ0PzRZHDn2nLdWeI-154" value="(1,N)" style="text;whiteSpace=wrap;fontSize=12;fontFamily=Verdana;" vertex="1" parent="1">
          <mxGeometry x="5460.25" y="1243" width="50" height="30" as="geometry" />
        </mxCell>
        <mxCell id="vSxFJ0PzRZHDn2nLdWeI-155" value="(1,N)" style="text;whiteSpace=wrap;fontSize=12;fontFamily=Verdana;" vertex="1" parent="1">
          <mxGeometry x="3912" y="1243" width="50" height="30" as="geometry" />
        </mxCell>
        <mxCell id="vSxFJ0PzRZHDn2nLdWeI-156" value="(1,N)" style="text;whiteSpace=wrap;fontSize=12;fontFamily=Verdana;" vertex="1" parent="1">
          <mxGeometry x="4571.25" y="1672.5" width="50" height="30" as="geometry" />
        </mxCell>
        <mxCell id="vSxFJ0PzRZHDn2nLdWeI-170" value="(1,1)" style="text;whiteSpace=wrap;fontSize=12;fontFamily=Verdana;" vertex="1" parent="1">
          <mxGeometry x="4376.25" y="739" width="50" height="30" as="geometry" />
        </mxCell>
        <mxCell id="vSxFJ0PzRZHDn2nLdWeI-171" value="(1,1)" style="text;whiteSpace=wrap;fontSize=12;fontFamily=Verdana;" vertex="1" parent="1">
          <mxGeometry x="5035.25" y="946.25" width="50" height="30" as="geometry" />
        </mxCell>
        <mxCell id="vSxFJ0PzRZHDn2nLdWeI-178" value="Membresia" style="shape=ext;margin=3;double=1;whiteSpace=wrap;html=1;align=center;fillColor=#CCE5FF;fontFamily=Verdana;" vertex="1" parent="1">
          <mxGeometry x="5061.75" y="549" width="200" height="80" as="geometry" />
        </mxCell>
        <mxCell id="vSxFJ0PzRZHDn2nLdWeI-179" value="" style="ellipse;whiteSpace=wrap;html=1;aspect=fixed;fillColor=#CCE5FF;fontFamily=Verdana;" vertex="1" parent="1">
          <mxGeometry x="5256.25" y="1530" width="30" height="30" as="geometry" />
        </mxCell>
        <mxCell id="vSxFJ0PzRZHDn2nLdWeI-181" value="" style="endArrow=none;html=1;rounded=0;exitX=0.5;exitY=0;exitDx=0;exitDy=0;entryX=0.391;entryY=0.96;entryDx=0;entryDy=0;fontFamily=Verdana;entryPerimeter=0;" edge="1" parent="1" source="vSxFJ0PzRZHDn2nLdWeI-63" target="vSxFJ0PzRZHDn2nLdWeI-74">
          <mxGeometry width="50" height="50" relative="1" as="geometry">
            <mxPoint x="5091.25" y="1618.6800000000003" as="sourcePoint" />
            <mxPoint x="5103.45" y="1568" as="targetPoint" />
          </mxGeometry>
        </mxCell>
        <mxCell id="vSxFJ0PzRZHDn2nLdWeI-180" value="Hora_Reserva_fin" style="text;html=1;strokeColor=none;fillColor=none;align=center;verticalAlign=middle;whiteSpace=wrap;rounded=0;fontFamily=Verdana;" vertex="1" parent="1">
          <mxGeometry x="5259.25" y="1505" width="60" height="30" as="geometry" />
        </mxCell>
        <mxCell id="vSxFJ0PzRZHDn2nLdWeI-182" value="" style="endArrow=none;html=1;rounded=0;exitX=1;exitY=0;exitDx=0;exitDy=0;entryX=0;entryY=1;entryDx=0;entryDy=0;fontFamily=Verdana;" edge="1" parent="1" source="vSxFJ0PzRZHDn2nLdWeI-63" target="vSxFJ0PzRZHDn2nLdWeI-179">
          <mxGeometry width="50" height="50" relative="1" as="geometry">
            <mxPoint x="5131.45" y="1619" as="sourcePoint" />
            <mxPoint x="5186.45" y="1565" as="targetPoint" />
          </mxGeometry>
        </mxCell>
        <mxCell id="vSxFJ0PzRZHDn2nLdWeI-183" value="" style="ellipse;whiteSpace=wrap;html=1;aspect=fixed;fillColor=#CCE5FF;fontFamily=Verdana;" vertex="1" parent="1">
          <mxGeometry x="5071.25" y="1520" width="30" height="30" as="geometry" />
        </mxCell>
        <mxCell id="vSxFJ0PzRZHDn2nLdWeI-184" value="Fecha" style="text;html=1;strokeColor=none;fillColor=none;align=center;verticalAlign=middle;whiteSpace=wrap;rounded=0;fontFamily=Verdana;" vertex="1" parent="1">
          <mxGeometry x="5051.25" y="1495" width="60" height="30" as="geometry" />
        </mxCell>
        <mxCell id="vSxFJ0PzRZHDn2nLdWeI-185" value="" style="endArrow=none;html=1;rounded=0;exitX=0;exitY=0;exitDx=0;exitDy=0;entryX=0.5;entryY=1;entryDx=0;entryDy=0;fontFamily=Verdana;" edge="1" parent="1" source="vSxFJ0PzRZHDn2nLdWeI-63" target="vSxFJ0PzRZHDn2nLdWeI-183">
          <mxGeometry width="50" height="50" relative="1" as="geometry">
            <mxPoint x="5155.25" y="1634" as="sourcePoint" />
            <mxPoint x="5186.25" y="1565" as="targetPoint" />
          </mxGeometry>
        </mxCell>
        <mxCell id="vSxFJ0PzRZHDn2nLdWeI-186" value="&lt;font color=&quot;#006600&quot;&gt;&lt;span style=&quot;font-size: 15px;&quot;&gt;&lt;b&gt;entrena&lt;/b&gt;&lt;/span&gt;&lt;/font&gt;" style="text;html=1;align=center;verticalAlign=middle;resizable=0;points=[];autosize=1;strokeColor=none;fillColor=none;rotation=0;fontFamily=Verdana;" vertex="1" parent="1">
          <mxGeometry x="3870.25" y="1670" width="90" height="30" as="geometry" />
        </mxCell>
        <mxCell id="vSxFJ0PzRZHDn2nLdWeI-187" value="&lt;font color=&quot;#006600&quot;&gt;&lt;span style=&quot;font-size: 15px;&quot;&gt;&lt;b&gt;es entrenado&lt;/b&gt;&lt;/span&gt;&lt;/font&gt;" style="text;html=1;align=center;verticalAlign=middle;resizable=0;points=[];autosize=1;strokeColor=none;fillColor=none;rotation=-90;fontFamily=Verdana;" vertex="1" parent="1">
          <mxGeometry x="4180" y="1410.5" width="130" height="30" as="geometry" />
        </mxCell>
        <mxCell id="vSxFJ0PzRZHDn2nLdWeI-188" value="&lt;font color=&quot;#006600&quot;&gt;&lt;span style=&quot;font-size: 15px;&quot;&gt;&lt;b&gt;se entrena&lt;/b&gt;&lt;/span&gt;&lt;/font&gt;" style="text;html=1;align=center;verticalAlign=middle;resizable=0;points=[];autosize=1;strokeColor=none;fillColor=none;rotation=0;fontFamily=Verdana;" vertex="1" parent="1">
          <mxGeometry x="4420" y="1670" width="110" height="30" as="geometry" />
        </mxCell>
        <mxCell id="vSxFJ0PzRZHDn2nLdWeI-190" value="" style="endArrow=none;html=1;rounded=0;exitX=1;exitY=0.5;exitDx=0;exitDy=0;entryX=0;entryY=0.5;entryDx=0;entryDy=0;fontFamily=Verdana;" edge="1" parent="1" source="vSxFJ0PzRZHDn2nLdWeI-61" target="vSxFJ0PzRZHDn2nLdWeI-38">
          <mxGeometry width="50" height="50" relative="1" as="geometry">
            <mxPoint x="4670.25" y="1699" as="sourcePoint" />
            <mxPoint x="4720.25" y="1649" as="targetPoint" />
          </mxGeometry>
        </mxCell>
        <mxCell id="vSxFJ0PzRZHDn2nLdWeI-191" value="" style="endArrow=none;html=1;rounded=0;exitX=1;exitY=0.5;exitDx=0;exitDy=0;entryX=0;entryY=0.5;entryDx=0;entryDy=0;fontFamily=Verdana;" edge="1" parent="1" source="vSxFJ0PzRZHDn2nLdWeI-38" target="vSxFJ0PzRZHDn2nLdWeI-62">
          <mxGeometry width="50" height="50" relative="1" as="geometry">
            <mxPoint x="4670.25" y="1699" as="sourcePoint" />
            <mxPoint x="4720.25" y="1649" as="targetPoint" />
          </mxGeometry>
        </mxCell>
        <mxCell id="vSxFJ0PzRZHDn2nLdWeI-192" value="&lt;font color=&quot;#006600&quot;&gt;&lt;span style=&quot;font-size: 15px;&quot;&gt;&lt;b&gt;imparte&lt;/b&gt;&lt;/span&gt;&lt;/font&gt;" style="text;html=1;align=center;verticalAlign=middle;resizable=0;points=[];autosize=1;strokeColor=none;fillColor=none;rotation=0;fontFamily=Verdana;" vertex="1" parent="1">
          <mxGeometry x="4330" y="1200" width="90" height="30" as="geometry" />
        </mxCell>
        <mxCell id="vSxFJ0PzRZHDn2nLdWeI-193" value="&lt;font color=&quot;#006600&quot;&gt;&lt;span style=&quot;font-size: 15px;&quot;&gt;&lt;b&gt;se imparte&lt;/b&gt;&lt;/span&gt;&lt;/font&gt;" style="text;html=1;align=center;verticalAlign=middle;resizable=0;points=[];autosize=1;strokeColor=none;fillColor=none;rotation=0;fontFamily=Verdana;" vertex="1" parent="1">
          <mxGeometry x="4711.25" y="1290" width="110" height="30" as="geometry" />
        </mxCell>
        <mxCell id="vSxFJ0PzRZHDn2nLdWeI-194" value="&lt;font color=&quot;#006600&quot;&gt;&lt;span style=&quot;font-size: 15px;&quot;&gt;&lt;b&gt;se ocupa&lt;/b&gt;&lt;/span&gt;&lt;/font&gt;" style="text;html=1;align=center;verticalAlign=middle;resizable=0;points=[];autosize=1;strokeColor=none;fillColor=none;rotation=0;fontFamily=Verdana;" vertex="1" parent="1">
          <mxGeometry x="5161.75" y="1200" width="100" height="30" as="geometry" />
        </mxCell>
        <mxCell id="vSxFJ0PzRZHDn2nLdWeI-198" value="&lt;font style=&quot;font-size: 11px;&quot; color=&quot;#ff0000&quot;&gt;&lt;b&gt;N:N:N&lt;/b&gt;&lt;/font&gt;" style="text;html=1;align=center;verticalAlign=middle;resizable=0;points=[];autosize=1;strokeColor=none;fillColor=none;fontFamily=Verdana;" vertex="1" parent="1">
          <mxGeometry x="4605.25" y="1267.5" width="60" height="30" as="geometry" />
        </mxCell>
        <mxCell id="vSxFJ0PzRZHDn2nLdWeI-199" value="&lt;font color=&quot;#ff0000&quot; style=&quot;font-size: 11px;&quot;&gt;N:M&lt;/font&gt;" style="text;html=1;align=center;verticalAlign=middle;resizable=0;points=[];autosize=1;strokeColor=none;fillColor=none;fontFamily=Verdana;fontStyle=1" vertex="1" parent="1">
          <mxGeometry x="5120.25" y="1704" width="50" height="30" as="geometry" />
        </mxCell>
        <mxCell id="vSxFJ0PzRZHDn2nLdWeI-200" value="" style="endArrow=none;html=1;rounded=0;exitX=0;exitY=0.357;exitDx=0;exitDy=0;exitPerimeter=0;entryX=1;entryY=0.5;entryDx=0;entryDy=0;fontFamily=Verdana;" edge="1" parent="1" source="vSxFJ0PzRZHDn2nLdWeI-55" target="vSxFJ0PzRZHDn2nLdWeI-202">
          <mxGeometry width="50" height="50" relative="1" as="geometry">
            <mxPoint x="4370.25" y="759" as="sourcePoint" />
            <mxPoint x="4000.25" y="799" as="targetPoint" />
          </mxGeometry>
        </mxCell>
        <mxCell id="vSxFJ0PzRZHDn2nLdWeI-201" value="" style="group;fontFamily=Verdana;" connectable="0" vertex="1" parent="1">
          <mxGeometry x="4030.25" y="729" width="60" height="60" as="geometry" />
        </mxCell>
        <mxCell id="vSxFJ0PzRZHDn2nLdWeI-202" value="" style="ellipse;whiteSpace=wrap;html=1;aspect=fixed;fillColor=#CCE5FF;fontFamily=Verdana;" vertex="1" parent="vSxFJ0PzRZHDn2nLdWeI-201">
          <mxGeometry x="15" y="30" width="30" height="30" as="geometry" />
        </mxCell>
        <mxCell id="vSxFJ0PzRZHDn2nLdWeI-203" value="Apellidos" style="text;html=1;strokeColor=none;fillColor=none;align=center;verticalAlign=middle;whiteSpace=wrap;rounded=0;fontFamily=Verdana;" vertex="1" parent="vSxFJ0PzRZHDn2nLdWeI-201">
          <mxGeometry width="60" height="30" as="geometry" />
        </mxCell>
        <mxCell id="vSxFJ0PzRZHDn2nLdWeI-204" value="" style="endArrow=none;html=1;rounded=0;entryX=0;entryY=0.5;entryDx=0;entryDy=0;exitX=1;exitY=0.5;exitDx=0;exitDy=0;fontFamily=Verdana;" edge="1" parent="1" source="vSxFJ0PzRZHDn2nLdWeI-210" target="vSxFJ0PzRZHDn2nLdWeI-202">
          <mxGeometry width="50" height="50" relative="1" as="geometry">
            <mxPoint x="3990.25" y="819" as="sourcePoint" />
            <mxPoint x="4420.25" y="979" as="targetPoint" />
          </mxGeometry>
        </mxCell>
        <mxCell id="vSxFJ0PzRZHDn2nLdWeI-205" value="" style="endArrow=none;html=1;rounded=0;entryX=0;entryY=0.5;entryDx=0;entryDy=0;fontFamily=Verdana;" edge="1" parent="1" target="vSxFJ0PzRZHDn2nLdWeI-202">
          <mxGeometry width="50" height="50" relative="1" as="geometry">
            <mxPoint x="3980.25" y="759" as="sourcePoint" />
            <mxPoint x="4059.25" y="795" as="targetPoint" />
          </mxGeometry>
        </mxCell>
        <mxCell id="vSxFJ0PzRZHDn2nLdWeI-206" value="" style="group;fontFamily=Verdana;" connectable="0" vertex="1" parent="1">
          <mxGeometry x="3950" y="710" width="60" height="60" as="geometry" />
        </mxCell>
        <mxCell id="vSxFJ0PzRZHDn2nLdWeI-207" value="" style="ellipse;whiteSpace=wrap;html=1;aspect=fixed;fillColor=#CCE5FF;fontFamily=Verdana;" vertex="1" parent="vSxFJ0PzRZHDn2nLdWeI-206">
          <mxGeometry x="15" y="30" width="30" height="30" as="geometry" />
        </mxCell>
        <mxCell id="vSxFJ0PzRZHDn2nLdWeI-208" value="Apellido 1" style="text;html=1;strokeColor=none;fillColor=none;align=center;verticalAlign=middle;whiteSpace=wrap;rounded=0;fontFamily=Verdana;" vertex="1" parent="vSxFJ0PzRZHDn2nLdWeI-206">
          <mxGeometry width="60" height="30" as="geometry" />
        </mxCell>
        <mxCell id="vSxFJ0PzRZHDn2nLdWeI-209" value="" style="group;fontFamily=Verdana;" connectable="0" vertex="1" parent="1">
          <mxGeometry x="3950.25" y="779" width="60" height="76.25" as="geometry" />
        </mxCell>
        <mxCell id="vSxFJ0PzRZHDn2nLdWeI-210" value="" style="ellipse;whiteSpace=wrap;html=1;aspect=fixed;fillColor=#CCE5FF;fontFamily=Verdana;" vertex="1" parent="vSxFJ0PzRZHDn2nLdWeI-209">
          <mxGeometry x="15" y="16.25" width="30" height="30" as="geometry" />
        </mxCell>
        <mxCell id="vSxFJ0PzRZHDn2nLdWeI-211" value="Apellido 2" style="text;html=1;strokeColor=none;fillColor=none;align=center;verticalAlign=middle;whiteSpace=wrap;rounded=0;fontFamily=Verdana;" vertex="1" parent="vSxFJ0PzRZHDn2nLdWeI-209">
          <mxGeometry y="46.25" width="60" height="30" as="geometry" />
        </mxCell>
        <mxCell id="vSxFJ0PzRZHDn2nLdWeI-212" value="&lt;font style=&quot;font-size: 11px;&quot;&gt;&lt;b&gt;ID&lt;/b&gt;&lt;/font&gt;" style="text;html=1;align=center;verticalAlign=middle;resizable=0;points=[];autosize=1;strokeColor=none;fillColor=none;fontFamily=Verdana;" vertex="1" parent="1">
          <mxGeometry x="4641.25" y="544" width="40" height="30" as="geometry" />
        </mxCell>
        <mxCell id="vSxFJ0PzRZHDn2nLdWeI-213" value="*Coste_Total" style="text;html=1;strokeColor=none;fillColor=none;align=center;verticalAlign=middle;whiteSpace=wrap;rounded=0;fontFamily=Verdana;" vertex="1" parent="1">
          <mxGeometry x="5299.25" y="423" width="60" height="30" as="geometry" />
        </mxCell>
        <mxCell id="vSxFJ0PzRZHDn2nLdWeI-214" value="" style="ellipse;whiteSpace=wrap;html=1;aspect=fixed;fillColor=#CCE5FF;fontFamily=Verdana;" vertex="1" parent="1">
          <mxGeometry x="5070.75" y="461" width="30" height="30" as="geometry" />
        </mxCell>
        <mxCell id="vSxFJ0PzRZHDn2nLdWeI-215" value="Frecuencia" style="text;html=1;strokeColor=none;fillColor=none;align=center;verticalAlign=middle;whiteSpace=wrap;rounded=0;fontFamily=Verdana;" vertex="1" parent="1">
          <mxGeometry x="5055.75" y="440" width="60" height="30" as="geometry" />
        </mxCell>
        <mxCell id="vSxFJ0PzRZHDn2nLdWeI-216" value="" style="endArrow=none;html=1;rounded=0;entryX=0.5;entryY=1;entryDx=0;entryDy=0;exitX=0.151;exitY=0.007;exitDx=0;exitDy=0;fontFamily=Verdana;exitPerimeter=0;" edge="1" parent="1" source="vSxFJ0PzRZHDn2nLdWeI-178" target="vSxFJ0PzRZHDn2nLdWeI-214">
          <mxGeometry width="50" height="50" relative="1" as="geometry">
            <mxPoint x="5201.549999999999" y="559.6400000000001" as="sourcePoint" />
            <mxPoint x="5209.25" y="493" as="targetPoint" />
          </mxGeometry>
        </mxCell>
        <mxCell id="vSxFJ0PzRZHDn2nLdWeI-217" value="" style="endArrow=none;html=1;rounded=0;entryX=0;entryY=1;entryDx=0;entryDy=0;fontFamily=Verdana;exitX=0.855;exitY=0.002;exitDx=0;exitDy=0;exitPerimeter=0;" edge="1" parent="1" source="vSxFJ0PzRZHDn2nLdWeI-178" target="vSxFJ0PzRZHDn2nLdWeI-219">
          <mxGeometry width="50" height="50" relative="1" as="geometry">
            <mxPoint x="5260.25" y="548" as="sourcePoint" />
            <mxPoint x="5325.25" y="483" as="targetPoint" />
          </mxGeometry>
        </mxCell>
        <mxCell id="vSxFJ0PzRZHDn2nLdWeI-218" value="" style="ellipse;whiteSpace=wrap;html=1;aspect=fixed;fillColor=#CCE5FF;dashed=1;fontFamily=Verdana;" vertex="1" parent="1">
          <mxGeometry x="5146.75" y="440" width="30" height="30" as="geometry" />
        </mxCell>
        <mxCell id="vSxFJ0PzRZHDn2nLdWeI-219" value="" style="ellipse;whiteSpace=wrap;html=1;aspect=fixed;fillColor=#CCE5FF;dashed=1;fontFamily=Verdana;" vertex="1" parent="1">
          <mxGeometry x="5314.25" y="453" width="30" height="30" as="geometry" />
        </mxCell>
        <mxCell id="vSxFJ0PzRZHDn2nLdWeI-220" value="" style="ellipse;whiteSpace=wrap;html=1;aspect=fixed;fillColor=#CCE5FF;fontFamily=Verdana;" vertex="1" parent="1">
          <mxGeometry x="5270.25" y="807.5" width="30" height="30" as="geometry" />
        </mxCell>
        <mxCell id="vSxFJ0PzRZHDn2nLdWeI-221" value="" style="ellipse;whiteSpace=wrap;html=1;aspect=fixed;fillColor=#CCE5FF;fontFamily=Verdana;" vertex="1" parent="1">
          <mxGeometry x="5325.25" y="811.25" width="30" height="30" as="geometry" />
        </mxCell>
        <mxCell id="vSxFJ0PzRZHDn2nLdWeI-222" value="" style="ellipse;whiteSpace=wrap;html=1;aspect=fixed;fillColor=#CCE5FF;fontFamily=Verdana;" vertex="1" parent="1">
          <mxGeometry x="5220.25" y="807.5" width="30" height="30" as="geometry" />
        </mxCell>
        <mxCell id="vSxFJ0PzRZHDn2nLdWeI-223" value="Estado" style="text;html=1;strokeColor=none;fillColor=none;align=center;verticalAlign=middle;whiteSpace=wrap;rounded=0;fontFamily=Verdana;" vertex="1" parent="1">
          <mxGeometry x="5255.25" y="777.5" width="60" height="30" as="geometry" />
        </mxCell>
        <mxCell id="vSxFJ0PzRZHDn2nLdWeI-224" value="Formato_pago" style="text;html=1;strokeColor=none;fillColor=none;align=center;verticalAlign=middle;whiteSpace=wrap;rounded=0;fontFamily=Verdana;" vertex="1" parent="1">
          <mxGeometry x="5319.25" y="777.5" width="60" height="30" as="geometry" />
        </mxCell>
        <mxCell id="vSxFJ0PzRZHDn2nLdWeI-225" value="" style="endArrow=none;html=1;rounded=0;entryX=0.5;entryY=1;entryDx=0;entryDy=0;exitX=0.877;exitY=-0.001;exitDx=0;exitDy=0;exitPerimeter=0;fontFamily=Verdana;" edge="1" parent="1" source="vSxFJ0PzRZHDn2nLdWeI-56" target="vSxFJ0PzRZHDn2nLdWeI-220">
          <mxGeometry width="50" height="50" relative="1" as="geometry">
            <mxPoint x="5237.25" y="907.25" as="sourcePoint" />
            <mxPoint x="5245.25" y="847.25" as="targetPoint" />
          </mxGeometry>
        </mxCell>
        <mxCell id="vSxFJ0PzRZHDn2nLdWeI-226" value="" style="endArrow=none;html=1;rounded=0;entryX=0;entryY=1;entryDx=0;entryDy=0;exitX=1;exitY=0;exitDx=0;exitDy=0;fontFamily=Verdana;" edge="1" parent="1" source="vSxFJ0PzRZHDn2nLdWeI-56" target="vSxFJ0PzRZHDn2nLdWeI-221">
          <mxGeometry width="50" height="50" relative="1" as="geometry">
            <mxPoint x="5280.25" y="906.25" as="sourcePoint" />
            <mxPoint x="5295.25" y="847.25" as="targetPoint" />
          </mxGeometry>
        </mxCell>
        <mxCell id="vSxFJ0PzRZHDn2nLdWeI-227" value="" style="ellipse;whiteSpace=wrap;html=1;aspect=fixed;fillColor=#CCE5FF;fontFamily=Verdana;" vertex="1" parent="1">
          <mxGeometry x="5390.25" y="453" width="30" height="30" as="geometry" />
        </mxCell>
        <mxCell id="vSxFJ0PzRZHDn2nLdWeI-228" value="Estado" style="text;html=1;strokeColor=none;fillColor=none;align=center;verticalAlign=middle;whiteSpace=wrap;rounded=0;fontFamily=Verdana;" vertex="1" parent="1">
          <mxGeometry x="5375.25" y="423" width="60" height="30" as="geometry" />
        </mxCell>
        <mxCell id="vSxFJ0PzRZHDn2nLdWeI-229" value="" style="endArrow=none;html=1;rounded=0;entryX=0;entryY=1;entryDx=0;entryDy=0;exitX=1;exitY=0.25;exitDx=0;exitDy=0;fontFamily=Verdana;" edge="1" parent="1" source="vSxFJ0PzRZHDn2nLdWeI-178" target="vSxFJ0PzRZHDn2nLdWeI-227">
          <mxGeometry width="50" height="50" relative="1" as="geometry">
            <mxPoint x="5270.25" y="558" as="sourcePoint" />
            <mxPoint x="5335.25" y="493" as="targetPoint" />
          </mxGeometry>
        </mxCell>
        <mxCell id="vSxFJ0PzRZHDn2nLdWeI-230" value="&lt;font color=&quot;#006600&quot;&gt;&lt;span style=&quot;font-size: 15px;&quot;&gt;&lt;b&gt;Reserva&lt;/b&gt;&lt;/span&gt;&lt;/font&gt;" style="text;html=1;align=center;verticalAlign=middle;resizable=0;points=[];autosize=1;strokeColor=none;fillColor=none;rotation=0;fontFamily=Verdana;" vertex="1" parent="1">
          <mxGeometry x="4902.75" y="1672.5" width="90" height="30" as="geometry" />
        </mxCell>
        <mxCell id="vSxFJ0PzRZHDn2nLdWeI-231" value="&lt;font color=&quot;#006600&quot;&gt;&lt;span style=&quot;font-size: 15px;&quot;&gt;&lt;b&gt;Es reservado&lt;/b&gt;&lt;/span&gt;&lt;/font&gt;" style="text;html=1;align=center;verticalAlign=middle;resizable=0;points=[];autosize=1;strokeColor=none;fillColor=none;rotation=0;fontFamily=Verdana;" vertex="1" parent="1">
          <mxGeometry x="5460" y="1674" width="130" height="30" as="geometry" />
        </mxCell>
        <mxCell id="vSxFJ0PzRZHDn2nLdWeI-242" value="" style="endArrow=none;html=1;rounded=0;entryX=0;entryY=0;entryDx=0;entryDy=0;exitX=0.5;exitY=1;exitDx=0;exitDy=0;fontFamily=Verdana;" edge="1" parent="1" source="vSxFJ0PzRZHDn2nLdWeI-243" target="vSxFJ0PzRZHDn2nLdWeI-38">
          <mxGeometry width="50" height="50" relative="1" as="geometry">
            <mxPoint x="4576.75" y="1313" as="sourcePoint" />
            <mxPoint x="4586.75" y="1243" as="targetPoint" />
          </mxGeometry>
        </mxCell>
        <mxCell id="vSxFJ0PzRZHDn2nLdWeI-243" value="" style="ellipse;whiteSpace=wrap;html=1;aspect=fixed;fillColor=#CCE5FF;fontFamily=Verdana;" vertex="1" parent="1">
          <mxGeometry x="4565.75" y="1052" width="30" height="30" as="geometry" />
        </mxCell>
        <mxCell id="vSxFJ0PzRZHDn2nLdWeI-244" value="Fecha" style="text;html=1;strokeColor=none;fillColor=none;align=center;verticalAlign=middle;whiteSpace=wrap;rounded=0;fontFamily=Verdana;" vertex="1" parent="1">
          <mxGeometry x="4547.75" y="1022" width="60" height="30" as="geometry" />
        </mxCell>
        <mxCell id="vSxFJ0PzRZHDn2nLdWeI-245" value="" style="ellipse;whiteSpace=wrap;html=1;aspect=fixed;fillColor=#CCE5FF;fontFamily=Verdana;" vertex="1" parent="1">
          <mxGeometry x="4643.75" y="1053.5" width="30" height="30" as="geometry" />
        </mxCell>
        <mxCell id="vSxFJ0PzRZHDn2nLdWeI-246" value="Hora_inicio" style="text;html=1;strokeColor=none;fillColor=none;align=center;verticalAlign=middle;whiteSpace=wrap;rounded=0;fontFamily=Verdana;" vertex="1" parent="1">
          <mxGeometry x="4633.75" y="1023" width="60" height="30" as="geometry" />
        </mxCell>
        <mxCell id="vSxFJ0PzRZHDn2nLdWeI-247" value="" style="endArrow=none;html=1;rounded=0;exitX=0.5;exitY=1;exitDx=0;exitDy=0;fontFamily=Verdana;" edge="1" parent="1" source="vSxFJ0PzRZHDn2nLdWeI-245">
          <mxGeometry width="50" height="50" relative="1" as="geometry">
            <mxPoint x="4651.5" y="1104" as="sourcePoint" />
            <mxPoint x="4658.5" y="1194" as="targetPoint" />
          </mxGeometry>
        </mxCell>
        <mxCell id="vSxFJ0PzRZHDn2nLdWeI-248" value="" style="endArrow=none;html=1;rounded=0;entryX=1;entryY=0;entryDx=0;entryDy=0;exitX=0.179;exitY=0.867;exitDx=0;exitDy=0;exitPerimeter=0;fontFamily=Verdana;" edge="1" parent="1" source="vSxFJ0PzRZHDn2nLdWeI-249" target="vSxFJ0PzRZHDn2nLdWeI-38">
          <mxGeometry width="50" height="50" relative="1" as="geometry">
            <mxPoint x="4792.13" y="1093.5" as="sourcePoint" />
            <mxPoint x="4756.38" y="1183" as="targetPoint" />
          </mxGeometry>
        </mxCell>
        <mxCell id="vSxFJ0PzRZHDn2nLdWeI-249" value="" style="ellipse;whiteSpace=wrap;html=1;aspect=fixed;fillColor=#CCE5FF;fontFamily=Verdana;" vertex="1" parent="1">
          <mxGeometry x="4786.75" y="1068" width="30" height="30" as="geometry" />
        </mxCell>
        <mxCell id="vSxFJ0PzRZHDn2nLdWeI-250" value="Hora_final" style="text;html=1;strokeColor=none;fillColor=none;align=center;verticalAlign=middle;whiteSpace=wrap;rounded=0;fontFamily=Verdana;" vertex="1" parent="1">
          <mxGeometry x="4816.75" y="1053.5" width="60" height="30" as="geometry" />
        </mxCell>
        <mxCell id="vSxFJ0PzRZHDn2nLdWeI-259" value="&lt;font style=&quot;font-size: 11px;&quot; color=&quot;#ff0000&quot;&gt;&lt;b&gt;N:N:N&lt;/b&gt;&lt;/font&gt;" style="text;html=1;align=center;verticalAlign=middle;resizable=0;points=[];autosize=1;strokeColor=none;fillColor=none;fontFamily=Verdana;" vertex="1" parent="1">
          <mxGeometry x="4235.25" y="1710" width="60" height="30" as="geometry" />
        </mxCell>
        <mxCell id="vSxFJ0PzRZHDn2nLdWeI-261" value="" style="endArrow=none;html=1;rounded=0;edgeStyle=orthogonalEdgeStyle;exitX=1;exitY=0.5;exitDx=0;exitDy=0;entryX=1;entryY=0.75;entryDx=0;entryDy=0;fontFamily=Verdana;" edge="1" parent="1" source="vSxFJ0PzRZHDn2nLdWeI-63" target="vSxFJ0PzRZHDn2nLdWeI-62">
          <mxGeometry width="50" height="50" relative="1" as="geometry">
            <mxPoint x="6259.92" y="2430" as="sourcePoint" />
            <mxPoint x="5710" y="1239" as="targetPoint" />
            <Array as="points">
              <mxPoint x="5740" y="1664" />
              <mxPoint x="5740" y="1253" />
            </Array>
          </mxGeometry>
        </mxCell>
        <mxCell id="vSxFJ0PzRZHDn2nLdWeI-263" style="rounded=0;orthogonalLoop=1;jettySize=auto;html=1;exitX=0.5;exitY=0;exitDx=0;exitDy=0;entryX=1;entryY=0.5;entryDx=0;entryDy=0;strokeColor=default;endArrow=none;endFill=0;fontFamily=Verdana;" edge="1" parent="1" source="vSxFJ0PzRZHDn2nLdWeI-147" target="vSxFJ0PzRZHDn2nLdWeI-62">
          <mxGeometry relative="1" as="geometry" />
        </mxCell>
        <mxCell id="vSxFJ0PzRZHDn2nLdWeI-266" value="" style="endArrow=none;html=1;rounded=0;entryX=0.5;entryY=1;entryDx=0;entryDy=0;exitX=0.75;exitY=0;exitDx=0;exitDy=0;fontFamily=Verdana;" edge="1" parent="1" source="vSxFJ0PzRZHDn2nLdWeI-134" target="vSxFJ0PzRZHDn2nLdWeI-265">
          <mxGeometry width="50" height="50" relative="1" as="geometry">
            <mxPoint x="4776" y="1624" as="sourcePoint" />
            <mxPoint x="4192.5" y="1104" as="targetPoint" />
          </mxGeometry>
        </mxCell>
        <mxCell id="vSxFJ0PzRZHDn2nLdWeI-42" value="" style="group;fontFamily=Verdana;" connectable="0" vertex="1" parent="1">
          <mxGeometry x="4140" y="580" width="60" height="60" as="geometry" />
        </mxCell>
        <mxCell id="vSxFJ0PzRZHDn2nLdWeI-43" value="" style="ellipse;whiteSpace=wrap;html=1;aspect=fixed;fillColor=#000000;fontFamily=Verdana;" vertex="1" parent="vSxFJ0PzRZHDn2nLdWeI-42">
          <mxGeometry x="15" y="30" width="30" height="30" as="geometry" />
        </mxCell>
        <mxCell id="vSxFJ0PzRZHDn2nLdWeI-44" value="&lt;b&gt;&lt;font&gt;ID_Socio&lt;/font&gt;&lt;/b&gt;" style="text;html=1;strokeColor=none;fillColor=none;align=center;verticalAlign=middle;whiteSpace=wrap;rounded=0;fontFamily=Verdana;" vertex="1" parent="vSxFJ0PzRZHDn2nLdWeI-42">
          <mxGeometry width="60" height="30" as="geometry" />
        </mxCell>
        <mxCell id="vSxFJ0PzRZHDn2nLdWeI-45" value="" style="group;fontFamily=Verdana;" connectable="0" vertex="1" parent="1">
          <mxGeometry x="4194.25" y="610" width="60" height="60" as="geometry" />
        </mxCell>
        <mxCell id="vSxFJ0PzRZHDn2nLdWeI-46" value="" style="ellipse;whiteSpace=wrap;html=1;aspect=fixed;fillColor=#CCE5FF;fontFamily=Verdana;" vertex="1" parent="vSxFJ0PzRZHDn2nLdWeI-45">
          <mxGeometry x="15" y="30" width="30" height="30" as="geometry" />
        </mxCell>
        <mxCell id="vSxFJ0PzRZHDn2nLdWeI-47" value="Nombre" style="text;html=1;strokeColor=none;fillColor=none;align=center;verticalAlign=middle;whiteSpace=wrap;rounded=0;fontFamily=Verdana;" vertex="1" parent="vSxFJ0PzRZHDn2nLdWeI-45">
          <mxGeometry width="60" height="30" as="geometry" />
        </mxCell>
        <mxCell id="vSxFJ0PzRZHDn2nLdWeI-48" value="" style="group;fontFamily=Verdana;" connectable="0" vertex="1" parent="1">
          <mxGeometry x="4260" y="580" width="70" height="60" as="geometry" />
        </mxCell>
        <mxCell id="vSxFJ0PzRZHDn2nLdWeI-49" value="" style="ellipse;whiteSpace=wrap;html=1;aspect=fixed;fillColor=#CCE5FF;fontFamily=Verdana;" vertex="1" parent="vSxFJ0PzRZHDn2nLdWeI-48">
          <mxGeometry x="15" y="30" width="30" height="30" as="geometry" />
        </mxCell>
        <mxCell id="vSxFJ0PzRZHDn2nLdWeI-50" value="Fecha_Nacimiento&lt;div&gt;&lt;br&gt;&lt;/div&gt;" style="text;html=1;strokeColor=none;fillColor=none;align=center;verticalAlign=middle;whiteSpace=wrap;rounded=0;fontFamily=Verdana;" vertex="1" parent="vSxFJ0PzRZHDn2nLdWeI-48">
          <mxGeometry x="17" y="10" width="60" height="30" as="geometry" />
        </mxCell>
        <mxCell id="vSxFJ0PzRZHDn2nLdWeI-51" value="" style="ellipse;whiteSpace=wrap;html=1;aspect=fixed;fillColor=#CCE5FF;dashed=1;fontFamily=Verdana;" vertex="1" parent="1">
          <mxGeometry x="4339.75" y="635" width="30" height="30" as="geometry" />
        </mxCell>
        <mxCell id="vSxFJ0PzRZHDn2nLdWeI-52" value="*Edad&amp;nbsp;" style="text;html=1;strokeColor=none;fillColor=none;align=center;verticalAlign=middle;whiteSpace=wrap;rounded=0;fontFamily=Verdana;" vertex="1" parent="1">
          <mxGeometry x="4371.25" y="634" width="60" height="30" as="geometry" />
        </mxCell>
        <mxCell id="vSxFJ0PzRZHDn2nLdWeI-272" value="Polideportivo" style="rounded=0;whiteSpace=wrap;html=1;fillColor=#CCE5FF;fontFamily=Verdana;direction=south;" vertex="1" parent="1">
          <mxGeometry x="6270" y="904" width="80" height="200" as="geometry" />
        </mxCell>
        <mxCell id="vSxFJ0PzRZHDn2nLdWeI-273" value="Sala" style="rounded=0;whiteSpace=wrap;html=1;fillColor=#CCE5FF;fontFamily=Verdana;direction=south;" vertex="1" parent="1">
          <mxGeometry x="6270" y="1129" width="80" height="200" as="geometry" />
        </mxCell>
        <mxCell id="vSxFJ0PzRZHDn2nLdWeI-274" value="Piscina" style="rounded=0;whiteSpace=wrap;html=1;fillColor=#CCE5FF;fontFamily=Verdana;direction=south;" vertex="1" parent="1">
          <mxGeometry x="6270" y="1355.5" width="80" height="200" as="geometry" />
        </mxCell>
        <mxCell id="vSxFJ0PzRZHDn2nLdWeI-275" value="" style="endArrow=none;html=1;rounded=0;exitX=0.5;exitY=1;exitDx=0;exitDy=0;entryX=0.5;entryY=0;entryDx=0;entryDy=0;" edge="1" parent="1" source="vSxFJ0PzRZHDn2nLdWeI-272" target="vSxFJ0PzRZHDn2nLdWeI-144">
          <mxGeometry width="50" height="50" relative="1" as="geometry">
            <mxPoint x="5880" y="1280" as="sourcePoint" />
            <mxPoint x="5930" y="1230" as="targetPoint" />
          </mxGeometry>
        </mxCell>
        <mxCell id="vSxFJ0PzRZHDn2nLdWeI-276" value="" style="endArrow=none;html=1;rounded=0;exitX=0.5;exitY=1;exitDx=0;exitDy=0;entryX=1;entryY=0.5;entryDx=0;entryDy=0;" edge="1" parent="1" source="vSxFJ0PzRZHDn2nLdWeI-273" target="vSxFJ0PzRZHDn2nLdWeI-144">
          <mxGeometry width="50" height="50" relative="1" as="geometry">
            <mxPoint x="6180" y="1063" as="sourcePoint" />
            <mxPoint x="6058" y="1211" as="targetPoint" />
          </mxGeometry>
        </mxCell>
        <mxCell id="vSxFJ0PzRZHDn2nLdWeI-277" value="" style="endArrow=none;html=1;rounded=0;exitX=0.5;exitY=1;exitDx=0;exitDy=0;entryX=0.5;entryY=1;entryDx=0;entryDy=0;" edge="1" parent="1" source="vSxFJ0PzRZHDn2nLdWeI-274" target="vSxFJ0PzRZHDn2nLdWeI-144">
          <mxGeometry width="50" height="50" relative="1" as="geometry">
            <mxPoint x="6180" y="1063" as="sourcePoint" />
            <mxPoint x="6058" y="1211" as="targetPoint" />
          </mxGeometry>
        </mxCell>
        <mxCell id="vSxFJ0PzRZHDn2nLdWeI-278" value="" style="endArrow=none;html=1;rounded=0;edgeStyle=orthogonalEdgeStyle;curved=1;" edge="1" parent="1">
          <mxGeometry width="50" height="50" relative="1" as="geometry">
            <mxPoint x="6070" y="1348" as="sourcePoint" />
            <mxPoint x="6070" y="1118" as="targetPoint" />
            <Array as="points">
              <mxPoint x="6120" y="1348" />
              <mxPoint x="6120" y="1118" />
            </Array>
          </mxGeometry>
        </mxCell>
        <mxCell id="LQXunVhSCqm8QGdKU1nr-96" value="" style="ellipse;whiteSpace=wrap;html=1;aspect=fixed;fillColor=#CCE5FF;fontFamily=Verdana;direction=north;" vertex="1" parent="1">
          <mxGeometry x="6520" y="989" width="30" height="30" as="geometry" />
        </mxCell>
        <mxCell id="LQXunVhSCqm8QGdKU1nr-97" value="" style="ellipse;whiteSpace=wrap;html=1;aspect=fixed;fillColor=#CCE5FF;fontFamily=Verdana;direction=north;" vertex="1" parent="1">
          <mxGeometry x="6520" y="1214" width="30" height="30" as="geometry" />
        </mxCell>
        <mxCell id="LQXunVhSCqm8QGdKU1nr-98" value="" style="ellipse;whiteSpace=wrap;html=1;aspect=fixed;fillColor=#CCE5FF;fontFamily=Verdana;direction=north;" vertex="1" parent="1">
          <mxGeometry x="6520" y="1440.5" width="30" height="30" as="geometry" />
        </mxCell>
        <mxCell id="LQXunVhSCqm8QGdKU1nr-100" value="Temperatura" style="text;html=1;strokeColor=none;fillColor=none;align=center;verticalAlign=middle;whiteSpace=wrap;rounded=0;fontFamily=Verdana;" vertex="1" parent="1">
          <mxGeometry x="6510" y="1401.5" width="60" height="30" as="geometry" />
        </mxCell>
        <mxCell id="LQXunVhSCqm8QGdKU1nr-102" value="Tipo_suelo" style="text;html=1;strokeColor=none;fillColor=none;align=center;verticalAlign=middle;whiteSpace=wrap;rounded=0;fontFamily=Verdana;" vertex="1" parent="1">
          <mxGeometry x="6505" y="946.25" width="60" height="30" as="geometry" />
        </mxCell>
        <mxCell id="LQXunVhSCqm8QGdKU1nr-103" value="" style="endArrow=none;html=1;rounded=0;exitX=0.5;exitY=0;exitDx=0;exitDy=0;entryX=0.5;entryY=0;entryDx=0;entryDy=0;" edge="1" parent="1" source="LQXunVhSCqm8QGdKU1nr-98" target="vSxFJ0PzRZHDn2nLdWeI-274">
          <mxGeometry width="50" height="50" relative="1" as="geometry">
            <mxPoint x="6280" y="1239" as="sourcePoint" />
            <mxPoint x="6083" y="1239" as="targetPoint" />
          </mxGeometry>
        </mxCell>
        <mxCell id="LQXunVhSCqm8QGdKU1nr-104" value="" style="endArrow=none;html=1;rounded=0;exitX=0.5;exitY=0;exitDx=0;exitDy=0;entryX=0.5;entryY=0;entryDx=0;entryDy=0;" edge="1" parent="1" source="LQXunVhSCqm8QGdKU1nr-97" target="vSxFJ0PzRZHDn2nLdWeI-273">
          <mxGeometry width="50" height="50" relative="1" as="geometry">
            <mxPoint x="6280" y="1239" as="sourcePoint" />
            <mxPoint x="6530" y="1320" as="targetPoint" />
          </mxGeometry>
        </mxCell>
        <mxCell id="LQXunVhSCqm8QGdKU1nr-105" value="" style="endArrow=none;html=1;rounded=0;exitX=0.5;exitY=0;exitDx=0;exitDy=0;entryX=0.5;entryY=0;entryDx=0;entryDy=0;" edge="1" parent="1" source="LQXunVhSCqm8QGdKU1nr-96" target="vSxFJ0PzRZHDn2nLdWeI-272">
          <mxGeometry width="50" height="50" relative="1" as="geometry">
            <mxPoint x="6280" y="1014" as="sourcePoint" />
            <mxPoint x="6058" y="1211" as="targetPoint" />
          </mxGeometry>
        </mxCell>
        <mxCell id="LQXunVhSCqm8QGdKU1nr-106" value="Superficie" style="text;html=1;strokeColor=none;fillColor=none;align=center;verticalAlign=middle;whiteSpace=wrap;rounded=0;fontFamily=Verdana;" vertex="1" parent="1">
          <mxGeometry x="6510" y="1174" width="60" height="30" as="geometry" />
        </mxCell>
        <mxCell id="vSxFJ0PzRZHDn2nLdWeI-76" value="Tipo" style="text;html=1;strokeColor=none;fillColor=none;align=center;verticalAlign=middle;whiteSpace=wrap;rounded=0;fontFamily=Verdana;" vertex="1" parent="1">
          <mxGeometry x="6000" y="1035" width="60" height="30" as="geometry" />
        </mxCell>
        <mxCell id="vSxFJ0PzRZHDn2nLdWeI-288" value="" style="endArrow=none;html=1;rounded=0;exitX=1;exitY=0.25;exitDx=0;exitDy=0;fontFamily=Verdana;" edge="1" parent="1" source="vSxFJ0PzRZHDn2nLdWeI-62">
          <mxGeometry width="50" height="50" relative="1" as="geometry">
            <mxPoint x="5689" y="1204" as="sourcePoint" />
            <mxPoint x="5770" y="1190" as="targetPoint" />
          </mxGeometry>
        </mxCell>
        <mxCell id="vSxFJ0PzRZHDn2nLdWeI-289" value="" style="ellipse;whiteSpace=wrap;html=1;aspect=fixed;fillColor=#CCE5FF;fontFamily=Verdana;" vertex="1" parent="1">
          <mxGeometry x="5770.25" y="1174" width="30" height="30" as="geometry" />
        </mxCell>
        <mxCell id="vSxFJ0PzRZHDn2nLdWeI-299" value="Dirección" style="text;html=1;strokeColor=none;fillColor=none;align=center;verticalAlign=middle;whiteSpace=wrap;rounded=0;fontFamily=Verdana;" vertex="1" parent="1">
          <mxGeometry x="5810" y="1174" width="60" height="30" as="geometry" />
        </mxCell>
        <mxCell id="vSxFJ0PzRZHDn2nLdWeI-303" value="(1,1)" style="text;whiteSpace=wrap;fontSize=12;" vertex="1" parent="1">
          <mxGeometry x="6230" y="1459" width="50" height="30" as="geometry" />
        </mxCell>
        <mxCell id="LQXunVhSCqm8QGdKU1nr-107" value="(1,1)" style="text;whiteSpace=wrap;fontSize=12;" vertex="1" parent="1">
          <mxGeometry x="5920" y="1204" width="50" height="30" as="geometry" />
        </mxCell>
        <mxCell id="vSxFJ0PzRZHDn2nLdWeI-304" value="(1,1)" style="text;whiteSpace=wrap;fontSize=12;" vertex="1" parent="1">
          <mxGeometry x="6230" y="1243" width="50" height="30" as="geometry" />
        </mxCell>
        <mxCell id="vSxFJ0PzRZHDn2nLdWeI-305" value="(1,1)" style="text;whiteSpace=wrap;fontSize=12;" vertex="1" parent="1">
          <mxGeometry x="6240" y="1035" width="50" height="30" as="geometry" />
        </mxCell>
        <mxCell id="vSxFJ0PzRZHDn2nLdWeI-306" value="(1,N)" style="text;whiteSpace=wrap;fontSize=12;" vertex="1" parent="1">
          <mxGeometry x="5750.25" y="1262.5" width="50" height="30" as="geometry" />
        </mxCell>
        <mxCell id="LQXunVhSCqm8QGdKU1nr-109" value="(1,N)" style="text;whiteSpace=wrap;fontSize=12;fontFamily=Verdana;" vertex="1" parent="1">
          <mxGeometry x="3660" y="1243" width="50" height="30" as="geometry" />
        </mxCell>
        <mxCell id="LQXunVhSCqm8QGdKU1nr-110" value="(1,N)" style="text;whiteSpace=wrap;fontSize=12;fontFamily=Verdana;" vertex="1" parent="1">
          <mxGeometry x="4615.25" y="1594" width="50" height="30" as="geometry" />
        </mxCell>
        <mxCell id="vSxFJ0PzRZHDn2nLdWeI-307" value="" style="group;fontFamily=Verdana;" connectable="0" vertex="1" parent="1">
          <mxGeometry x="3770.25" y="1039" width="60" height="60" as="geometry" />
        </mxCell>
        <mxCell id="vSxFJ0PzRZHDn2nLdWeI-308" value="" style="ellipse;whiteSpace=wrap;html=1;aspect=fixed;fillColor=#CCE5FF;fontFamily=Verdana;" vertex="1" parent="vSxFJ0PzRZHDn2nLdWeI-307">
          <mxGeometry x="15" y="30" width="30" height="30" as="geometry" />
        </mxCell>
        <mxCell id="vSxFJ0PzRZHDn2nLdWeI-309" value="Apellidos" style="text;html=1;strokeColor=none;fillColor=none;align=center;verticalAlign=middle;whiteSpace=wrap;rounded=0;fontFamily=Verdana;" vertex="1" parent="vSxFJ0PzRZHDn2nLdWeI-307">
          <mxGeometry width="60" height="30" as="geometry" />
        </mxCell>
        <mxCell id="vSxFJ0PzRZHDn2nLdWeI-310" value="" style="endArrow=none;html=1;rounded=0;entryX=0;entryY=0.5;entryDx=0;entryDy=0;exitX=1;exitY=0.5;exitDx=0;exitDy=0;fontFamily=Verdana;" edge="1" parent="1" source="vSxFJ0PzRZHDn2nLdWeI-316" target="vSxFJ0PzRZHDn2nLdWeI-308">
          <mxGeometry width="50" height="50" relative="1" as="geometry">
            <mxPoint x="3730.25" y="1129" as="sourcePoint" />
            <mxPoint x="4160.25" y="1289" as="targetPoint" />
          </mxGeometry>
        </mxCell>
        <mxCell id="vSxFJ0PzRZHDn2nLdWeI-311" value="" style="endArrow=none;html=1;rounded=0;entryX=0;entryY=0.5;entryDx=0;entryDy=0;fontFamily=Verdana;" edge="1" parent="1" target="vSxFJ0PzRZHDn2nLdWeI-308">
          <mxGeometry width="50" height="50" relative="1" as="geometry">
            <mxPoint x="3720.25" y="1069" as="sourcePoint" />
            <mxPoint x="3799.25" y="1105" as="targetPoint" />
          </mxGeometry>
        </mxCell>
        <mxCell id="vSxFJ0PzRZHDn2nLdWeI-312" value="" style="group;fontFamily=Verdana;" connectable="0" vertex="1" parent="1">
          <mxGeometry x="3690" y="1020" width="60" height="60" as="geometry" />
        </mxCell>
        <mxCell id="vSxFJ0PzRZHDn2nLdWeI-313" value="" style="ellipse;whiteSpace=wrap;html=1;aspect=fixed;fillColor=#CCE5FF;fontFamily=Verdana;" vertex="1" parent="vSxFJ0PzRZHDn2nLdWeI-312">
          <mxGeometry x="15" y="30" width="30" height="30" as="geometry" />
        </mxCell>
        <mxCell id="vSxFJ0PzRZHDn2nLdWeI-314" value="Apellido 1" style="text;html=1;strokeColor=none;fillColor=none;align=center;verticalAlign=middle;whiteSpace=wrap;rounded=0;fontFamily=Verdana;" vertex="1" parent="vSxFJ0PzRZHDn2nLdWeI-312">
          <mxGeometry width="60" height="30" as="geometry" />
        </mxCell>
        <mxCell id="vSxFJ0PzRZHDn2nLdWeI-315" value="" style="group;fontFamily=Verdana;" connectable="0" vertex="1" parent="1">
          <mxGeometry x="3690.25" y="1089" width="60" height="76.25" as="geometry" />
        </mxCell>
        <mxCell id="vSxFJ0PzRZHDn2nLdWeI-316" value="" style="ellipse;whiteSpace=wrap;html=1;aspect=fixed;fillColor=#CCE5FF;fontFamily=Verdana;" vertex="1" parent="vSxFJ0PzRZHDn2nLdWeI-315">
          <mxGeometry x="15" y="16.25" width="30" height="30" as="geometry" />
        </mxCell>
        <mxCell id="vSxFJ0PzRZHDn2nLdWeI-317" value="Apellido 2" style="text;html=1;strokeColor=none;fillColor=none;align=center;verticalAlign=middle;whiteSpace=wrap;rounded=0;fontFamily=Verdana;" vertex="1" parent="vSxFJ0PzRZHDn2nLdWeI-315">
          <mxGeometry y="46.25" width="60" height="30" as="geometry" />
        </mxCell>
        <mxCell id="vSxFJ0PzRZHDn2nLdWeI-318" value="" style="endArrow=none;html=1;rounded=0;exitX=0.5;exitY=1;exitDx=0;exitDy=0;entryX=0.5;entryY=0;entryDx=0;entryDy=0;" edge="1" parent="1" source="vSxFJ0PzRZHDn2nLdWeI-308" target="vSxFJ0PzRZHDn2nLdWeI-61">
          <mxGeometry width="50" height="50" relative="1" as="geometry">
            <mxPoint x="4510" y="1200" as="sourcePoint" />
            <mxPoint x="4560" y="1150" as="targetPoint" />
          </mxGeometry>
        </mxCell>
        <mxCell id="eGBZGs4WiNTZDIcsLNyR-5" value="Fecha Actual - Fecha_Nacimiento&amp;nbsp;" style="text;html=1;align=center;verticalAlign=middle;whiteSpace=wrap;rounded=0;fontFamily=Verdana;strokeColor=default;dashed=1;" vertex="1" parent="1">
          <mxGeometry x="4391.25" y="664" width="148.75" height="30" as="geometry" />
        </mxCell>
        <mxCell id="BGTkTozxGcYjK1LHVmij-4" value="&lt;h4 style=&quot;text-align: center;&quot;&gt;&lt;strong&gt;&lt;font style=&quot;font-size: 19px;&quot; face=&quot;Verdana&quot;&gt;&lt;u style=&quot;&quot;&gt;Reglas sobre Socios&lt;/u&gt;&lt;/font&gt;&lt;/strong&gt;&lt;/h4&gt;&lt;h1 style=&quot;margin-top: 0px;&quot;&gt;&lt;ul&gt;&lt;li&gt;&lt;span style=&quot;background-color: initial; font-size: 12px;&quot;&gt;&lt;font style=&quot;font-size: 14px;&quot; face=&quot;Verdana&quot;&gt;&lt;span style=&quot;font-weight: normal;&quot;&gt;Un socio debe tener una membresía &lt;/span&gt;activa.&lt;/font&gt;&lt;/span&gt;&lt;/li&gt;&lt;li&gt;&lt;div style=&quot;background-color: initial; font-size: 12px; display: inline !important;&quot;&gt;&lt;span style=&quot;background-color: initial;&quot;&gt;&lt;font style=&quot;font-size: 14px;&quot; face=&quot;Verdana&quot;&gt;&lt;span style=&quot;font-weight: normal;&quot;&gt;La &lt;/span&gt;edad del socio se calcula automáticamente &lt;span style=&quot;font-weight: normal;&quot;&gt;a partir de su fecha de nacimiento.&lt;/span&gt;&lt;/font&gt;&lt;/span&gt;&lt;/div&gt;&lt;/li&gt;&lt;li&gt;&lt;font face=&quot;Verdana&quot;&gt;&lt;span style=&quot;font-size: 14px; font-weight: 400;&quot;&gt;No existen socios con fechas de vencimiento futuras para asegurar la integradad de los datos.&lt;/span&gt;&lt;/font&gt;&lt;/li&gt;&lt;/ul&gt;&lt;/h1&gt;" style="text;html=1;whiteSpace=wrap;overflow=hidden;rounded=0;" vertex="1" parent="1">
          <mxGeometry x="5471.5" y="186.38" width="520" height="227" as="geometry" />
        </mxCell>
        <mxCell id="BGTkTozxGcYjK1LHVmij-5" value="&lt;h4 style=&quot;text-align: center;&quot;&gt;&lt;font face=&quot;Verdana&quot; style=&quot;font-size: 19px;&quot;&gt;&lt;u style=&quot;&quot;&gt;Reglas sobre Membresías&lt;/u&gt;&lt;/font&gt;&lt;/h4&gt;&lt;h1 style=&quot;margin-top: 0px;&quot;&gt;&lt;ul&gt;&lt;li&gt;&lt;font face=&quot;Verdana&quot; style=&quot;font-size: 14px; font-weight: normal;&quot;&gt;La &lt;/font&gt;&lt;font face=&quot;Verdana&quot; style=&quot;font-size: 14px;&quot;&gt;categoría &lt;/font&gt;&lt;font face=&quot;Verdana&quot; style=&quot;font-size: 14px; font-weight: normal;&quot;&gt;de la membresía depende de la &lt;/font&gt;&lt;font face=&quot;Verdana&quot; style=&quot;font-size: 14px;&quot;&gt;edad&lt;/font&gt;&lt;font face=&quot;Verdana&quot; style=&quot;font-size: 14px; font-weight: normal;&quot;&gt; del socio.&lt;/font&gt;&lt;/li&gt;&lt;li&gt;&lt;font face=&quot;Verdana&quot; style=&quot;font-size: 14px; font-weight: normal;&quot;&gt;El coste &lt;/font&gt;&lt;font face=&quot;Verdana&quot; style=&quot;font-size: 14px;&quot;&gt;base&lt;span style=&quot;font-weight: normal;&quot;&gt;&amp;nbsp;por defecto es de 50€.&lt;/span&gt;&lt;/font&gt;&lt;/li&gt;&lt;li&gt;&lt;font face=&quot;Verdana&quot; style=&quot;font-size: 14px; font-weight: normal;&quot;&gt;El &lt;/font&gt;&lt;font face=&quot;Verdana&quot; style=&quot;font-size: 14px;&quot;&gt;coste total &lt;/font&gt;&lt;font face=&quot;Verdana&quot; style=&quot;font-size: 14px; font-weight: normal;&quot;&gt;de la membresía debe calcularse automáticamente en base a la categoría y la frecuencia.&lt;/font&gt;&lt;/li&gt;&lt;li&gt;&lt;font face=&quot;Verdana&quot; style=&quot;font-size: 14px; font-weight: normal;&quot;&gt;Cada membresía debe tener una &lt;/font&gt;&lt;font face=&quot;Verdana&quot; style=&quot;font-size: 14px;&quot;&gt;fecha de vencimiento&lt;/font&gt;&lt;font face=&quot;Verdana&quot; style=&quot;font-size: 14px; font-weight: normal;&quot;&gt; acorde a su frecuencia (mensual, trimestral, semestral).&lt;/font&gt;&lt;/li&gt;&lt;/ul&gt;&lt;/h1&gt;" style="text;html=1;whiteSpace=wrap;overflow=hidden;rounded=0;" vertex="1" parent="1">
          <mxGeometry x="5490.75" y="402" width="510" height="268" as="geometry" />
        </mxCell>
        <mxCell id="BGTkTozxGcYjK1LHVmij-6" value="&lt;h4 style=&quot;text-align: center;&quot;&gt;&lt;font face=&quot;Verdana&quot; style=&quot;font-size: 19px;&quot;&gt;&lt;u style=&quot;&quot;&gt;Reglas sobre Instalaciones&lt;/u&gt;&lt;/font&gt;&lt;/h4&gt;&lt;h1 style=&quot;margin-top: 0px;&quot;&gt;&lt;ul&gt;&lt;li&gt;&lt;font style=&quot;font-size: 14px; font-weight: normal;&quot; face=&quot;Verdana&quot;&gt;La capacidad de cada instalación debe ser &lt;/font&gt;&lt;font style=&quot;font-size: 14px;&quot; face=&quot;Verdana&quot;&gt;mayor a cero.&lt;/font&gt;&lt;/li&gt;&lt;li&gt;&lt;font style=&quot;font-size: 14px; font-weight: normal;&quot; face=&quot;Verdana&quot;&gt;No puede haber &lt;/font&gt;&lt;font style=&quot;font-size: 14px;&quot; face=&quot;Verdana&quot;&gt;solapamiento de horarios&lt;/font&gt;&lt;font style=&quot;font-size: 14px; font-weight: normal;&quot; face=&quot;Verdana&quot;&gt; en las reservas de las instalaciones.&lt;/font&gt;&lt;/li&gt;&lt;/ul&gt;&lt;/h1&gt;" style="text;html=1;whiteSpace=wrap;overflow=hidden;rounded=0;" vertex="1" parent="1">
          <mxGeometry x="5490.75" y="663.63" width="510" height="268" as="geometry" />
        </mxCell>
        <mxCell id="BGTkTozxGcYjK1LHVmij-8" value="&lt;h4 style=&quot;text-align: center;&quot;&gt;&lt;strong&gt;&lt;font style=&quot;font-size: 19px;&quot; face=&quot;Verdana&quot;&gt;&lt;u style=&quot;&quot;&gt;Reglas sobre Entrenadores&lt;/u&gt;&lt;/font&gt;&lt;/strong&gt;&lt;/h4&gt;&lt;h1 style=&quot;margin-top: 0px;&quot;&gt;&lt;ul&gt;&lt;li&gt;&lt;font style=&quot;font-size: 14px; font-weight: normal;&quot; face=&quot;Verdana&quot;&gt;El sueldo de un entrenador debe ser &lt;/font&gt;&lt;font style=&quot;font-size: 14px;&quot; face=&quot;Verdana&quot;&gt;mayor a cero.&lt;/font&gt;&lt;/li&gt;&lt;li&gt;&lt;font style=&quot;font-size: 14px; font-weight: normal;&quot; face=&quot;Verdana&quot;&gt;Un entrenador no puede impartir &lt;/font&gt;&lt;font style=&quot;font-size: 14px;&quot; face=&quot;Verdana&quot;&gt;dos deportes diferentes en el mismo horario.&lt;/font&gt;&lt;/li&gt;&lt;li&gt;&lt;font style=&quot;font-size: 14px; font-weight: normal;&quot; face=&quot;Verdana&quot;&gt;Los entrenadores deben estar registrados antes de asignarlos a un deporte o una instalación.&lt;/font&gt;&lt;/li&gt;&lt;/ul&gt;&lt;/h1&gt;" style="text;html=1;whiteSpace=wrap;overflow=hidden;rounded=0;" vertex="1" parent="1">
          <mxGeometry x="6039.25" y="186.38" width="520" height="227" as="geometry" />
        </mxCell>
        <mxCell id="BGTkTozxGcYjK1LHVmij-10" value="&lt;h4 style=&quot;text-align: center;&quot;&gt;&lt;strong&gt;&lt;font face=&quot;Verdana&quot; style=&quot;font-size: 19px;&quot;&gt;&lt;u style=&quot;&quot;&gt;Reglas sobre Deportes&lt;/u&gt;&lt;/font&gt;&lt;/strong&gt;&lt;/h4&gt;&lt;h1 style=&quot;margin-top: 0px;&quot;&gt;&lt;ul&gt;&lt;li&gt;&lt;font face=&quot;Verdana&quot; style=&quot;font-size: 14px; font-weight: normal;&quot;&gt;Cada deporte debe tener un &lt;/font&gt;&lt;font face=&quot;Verdana&quot; style=&quot;font-size: 14px;&quot;&gt;nombre único.&lt;/font&gt;&lt;/li&gt;&lt;li&gt;&lt;font face=&quot;Verdana&quot; style=&quot;font-size: 14px; font-weight: normal;&quot;&gt;Los deportes deben estar relacionados con al menos un &lt;/font&gt;&lt;font face=&quot;Verdana&quot; style=&quot;font-size: 14px;&quot;&gt;entrenador y una instalación.&lt;/font&gt;&lt;/li&gt;&lt;/ul&gt;&lt;/h1&gt;" style="text;html=1;whiteSpace=wrap;overflow=hidden;rounded=0;" vertex="1" parent="1">
          <mxGeometry x="6030.25" y="428.38" width="520" height="227" as="geometry" />
        </mxCell>
        <mxCell id="BGTkTozxGcYjK1LHVmij-12" value="&lt;h4 style=&quot;text-align: center;&quot;&gt;&lt;font style=&quot;font-size: 19px;&quot; face=&quot;Verdana&quot;&gt;&lt;u style=&quot;&quot;&gt;Reglas sobre Pagos&lt;/u&gt;&lt;/font&gt;&lt;/h4&gt;&lt;h1 style=&quot;margin-top: 0px;&quot;&gt;&lt;ul&gt;&lt;li&gt;&lt;font style=&quot;font-size: 14px; font-weight: normal;&quot;&gt;Monto del pago debe ser mayor que 0 y como &lt;/font&gt;&lt;font style=&quot;font-size: 14px;&quot;&gt;mínimo el coste total de la membresía.&lt;/font&gt;&lt;/li&gt;&lt;li&gt;&lt;font style=&quot;font-size: 14px; font-weight: normal;&quot;&gt;El pago debe estar realizado dentro del &lt;/font&gt;&lt;font style=&quot;font-size: 14px;&quot;&gt;tiempo establecido.&lt;/font&gt;&lt;/li&gt;&lt;/ul&gt;&lt;/h1&gt;" style="text;html=1;whiteSpace=wrap;overflow=hidden;rounded=0;" vertex="1" parent="1">
          <mxGeometry x="6030.25" y="636.38" width="520" height="227" as="geometry" />
        </mxCell>
        <mxCell id="BGTkTozxGcYjK1LHVmij-13" value="Fecha Actual + Frecuencia" style="text;html=1;align=center;verticalAlign=middle;whiteSpace=wrap;rounded=0;fontFamily=Verdana;strokeColor=default;dashed=1;" vertex="1" parent="1">
          <mxGeometry x="5095.25" y="360" width="148.75" height="30" as="geometry" />
        </mxCell>
        <mxCell id="BGTkTozxGcYjK1LHVmij-14" value="Coste Base * %Frecuencia *&lt;div&gt;%Categoría&amp;nbsp;&lt;/div&gt;" style="text;html=1;align=center;verticalAlign=middle;whiteSpace=wrap;rounded=0;fontFamily=Verdana;strokeColor=default;dashed=1;" vertex="1" parent="1">
          <mxGeometry x="5295.25" y="352" width="158.75" height="50" as="geometry" />
        </mxCell>
      </root>
    </mxGraphModel>
  </diagram>
</mxfile>
